<?xml version="1.0" encoding="utf-8" ?>
<svg xmlns="http://www.w3.org/2000/svg" xmlns:xlink="http://www.w3.org/1999/xlink" width="1024" height="1024">
	<path fill="#F5E6CA" transform="scale(2 2)" d="M419.782 160.176L324.668 160.176L324.631 213.217C324.605 215.529 324.411 217.964 324.668 220.261C324.67 223.904 324.792 227.587 324.668 231.225C324.667 236.22 324.533 241.264 324.668 246.255L324.668 255.487C324.347 259.924 324.701 264.431 324.678 268.878L324.668 303.506C324.673 308.045 324.873 312.669 324.668 317.198C324.666 322.195 324.515 327.254 324.668 332.246L324.668 345.885L324.668 361.167L324.668 374.585L324.668 398.061C324.722 400.7 324.745 403.323 324.668 405.963C319.203 406.245 313.573 405.967 308.092 405.966L274.513 405.963C274.485 400.329 274.947 394.472 274.513 388.873L274.513 355.567L237.472 355.567L237.472 405.963C234.495 405.718 231.313 405.944 228.317 405.95L209.228 405.963L177.62 405.955C166.972 405.963 156.31 406.094 145.664 405.963C142.468 406.284 138.944 405.973 135.712 405.971L100.16 405.975C97.7338 405.994 95.1283 406.31 92.7331 405.963L52.7117 405.963C50.8391 403.861 49.31 401.308 47.7278 398.98C26.8366 368.23 13.0144 334.365 6.8671 297.569C3.19738 275.603 2.33801 236.511 6.48941 214.556C26.902 106.604 106.583 25.2584 214.271 6.62872C229.506 3.99314 239.99 4.21401 255.504 4.20923C274.323 4.20342 283.9 4.0389 302.487 7.3533C400.842 24.8915 477.811 100.44 501.624 196.49C507.487 220.139 507.916 231.04 507.904 254.929C507.895 273.705 508.121 282.683 504.721 301.16C498.951 332.522 490.452 354.838 474.854 382.9C471.134 389.594 464.972 400.118 459.853 405.963C455.327 405.806 450.751 405.95 446.22 405.952L419.782 405.963C419.922 402.149 419.964 398.309 419.782 394.498C419.93 391.734 419.792 388.882 419.789 386.11L419.782 160.176ZM302.3 78.257L209.228 78.257L209.228 112.293C212.656 112.12 216.159 112.278 219.599 112.283L302.3 112.293L302.291 90.0462C302.284 86.1433 302.059 82.1479 302.3 78.257ZM187.763 160.176L92.7331 160.176L92.7331 395.11C92.7377 400.642 90.7486 405.278 95.5817 405.038C97.4573 404.641 109.091 405.031 111.958 405.032L159.897 405.038L180.204 405.014C182.494 405.007 185.571 404.547 187.763 405.038C188.128 401.879 187.788 398.307 187.763 395.11L187.763 373.647L187.763 364.862C188.414 348.156 187.96 329.481 187.763 312.728L187.763 307.832C187.881 301.398 187.777 294.947 187.763 288.511L187.763 275.855L187.763 259.987L187.763 258.819C188.83 252.7 187.762 237.5 187.763 230.723L187.763 217.515L187.763 201.727L187.763 188.99C187.873 179.388 187.685 169.779 187.763 160.176ZM201.203 134.071L201.203 153.782L223.001 153.782L223.001 134.071L201.203 134.071ZM288.825 134.071L288.825 153.782L311.425 153.782L311.425 134.071L288.825 134.071ZM245.264 134.071L245.264 153.782L267.248 153.782L267.248 134.071L245.264 134.071ZM310.712 164.988L288.825 164.988C288.829 166.446 288.462 184.958 288.565 185.228L288.825 185.291L311.425 185.291C311.436 175 311.283 164.929 310.712 164.988ZM201.203 164.988L201.203 185.291C208.416 185.303 215.808 185.653 223.001 185.291L223.001 164.988L201.203 164.988ZM245.264 164.988C245.469 171.739 245.254 178.534 245.264 185.291L267.248 185.291L267.248 164.988L245.264 164.988ZM296.146 196.456C293.707 196.442 291.263 196.394 288.825 196.456L288.825 216.993L305.063 216.993L311.425 216.993L311.425 196.456L296.146 196.456ZM201.203 196.456L201.203 216.993L223.001 216.993L223.001 196.456L201.203 196.456ZM245.264 196.456L245.264 216.993C252.589 217.083 259.922 217.005 267.248 216.993L267.248 196.456L245.264 196.456ZM245.264 228.179L245.264 248.739C252.555 248.741 259.973 249.044 267.248 248.739L267.248 228.179L245.264 228.179ZM310.712 228.179L288.825 228.179C288.82 231.944 287.062 248.706 290.187 248.739L311.425 248.739L311.447 234.235C311.467 232.507 312.492 227.896 310.712 228.179ZM201.203 228.179L201.203 248.739C208.466 248.736 215.739 248.648 223.001 248.739L223.001 228.179L201.203 228.179ZM201.203 259.987L201.203 280.202C203.934 280.204 221.58 280.602 223.001 280.202C223.003 273.474 223.159 266.71 223.001 259.987L201.203 259.987ZM245.264 259.987L245.264 280.202L267.248 280.202L267.248 259.987L245.264 259.987ZM288.825 259.987L288.825 280.202L311.425 280.202L311.425 259.987L288.825 259.987ZM201.203 291.517L201.203 311.526L223.001 311.526L223.001 291.517L201.203 291.517ZM245.264 291.517L245.264 311.526L259.851 311.549C262.29 311.555 264.82 311.719 267.248 311.526C267.379 304.862 267.246 298.182 267.248 291.517L245.264 291.517ZM288.825 291.517C288.837 298.154 289.112 304.898 288.825 311.526L311.425 311.526C311.411 304.861 311.301 298.18 311.425 291.517L288.825 291.517ZM245.264 323.194L245.264 343.028L267.248 343.028L267.248 323.194L245.264 323.194ZM201.203 323.194L201.203 343.891L223.001 343.891L223.001 323.194L201.203 323.194ZM288.825 323.194L288.825 343.891L311.425 343.891L311.425 323.194L288.825 323.194Z"/>
	<path fill="#708090" transform="scale(2 2)" d="M209.228 78.257L302.3 78.257C302.059 82.1479 302.284 86.1433 302.291 90.0462L302.3 112.293L219.599 112.283C216.159 112.278 212.656 112.12 209.228 112.293L209.228 78.257Z"/>
	<path fill="#708090" transform="scale(2 2)" d="M201.203 153.782L201.203 134.071L223.001 134.071L223.001 153.782L201.203 153.782Z"/>
	<path fill="#708090" transform="scale(2 2)" d="M288.825 153.782L288.825 134.071L311.425 134.071L311.425 153.782L288.825 153.782Z"/>
	<path fill="#708090" transform="scale(2 2)" d="M245.264 153.782L245.264 134.071L267.248 134.071L267.248 153.782L245.264 153.782Z"/>
	<path fill="#708090" transform="scale(2 2)" d="M92.7331 160.176L187.763 160.176C187.685 169.779 187.873 179.388 187.763 188.99C184.452 187.849 165.707 187.754 162.414 188.733C160.896 190.283 161.091 200.019 162.314 201.056C163.716 202.244 184.264 201.724 187.763 201.727L187.763 217.515L161.68 217.515C161.616 219.889 160.908 228.725 161.954 230.198C165.123 231.153 183.237 230.884 187.763 230.723C187.762 237.5 188.83 252.7 187.763 258.819C187.648 254.634 187.764 250.441 187.763 246.255C179.698 246.062 169.678 245.784 161.68 246.255C161.669 249.624 161.087 256.599 162.181 259.507C163.569 260.302 184.745 260.244 187.763 259.987L187.763 275.855C183.944 274.943 165.005 274.339 162.26 275.999C161.103 278.042 161.018 286.149 162.25 288.378C165.392 288.944 184.116 288.909 187.763 288.511C187.777 294.947 187.881 301.398 187.763 307.832C187.722 306.528 187.692 305.242 187.763 303.937C183.729 303.816 164.542 303.434 162.236 304.661C161.291 306.502 161.358 313.923 161.783 316.013C163.431 318.136 184.157 317.122 187.763 317.198C187.749 315.728 187.65 314.19 187.763 312.728C187.96 329.481 188.414 348.156 187.763 364.862C187.726 363.626 187.69 362.403 187.763 361.167C183.132 361.204 165.184 360.413 162.084 361.959C161.072 365.319 161.662 370.964 161.68 374.585C164.804 374.589 186.571 375.08 187.566 374.123L187.763 373.647L187.763 395.11C156.092 395.32 124.401 394.772 92.7331 395.11L92.7331 160.176ZM107.608 188.238C105.084 188.195 102.941 188.231 100.513 188.99C100.083 206.017 100.949 201.611 118.313 201.727C120.449 201.749 122.651 201.885 124.779 201.727C125.298 184.003 126.571 188.175 107.608 188.238ZM132.818 188.238C129.837 190.149 131.298 198.573 131.307 201.727C138.386 201.919 147.217 202.2 154.244 201.727C156.43 199.768 155.44 191.694 155.435 188.99C149.916 187.496 138.808 188.221 132.818 188.238ZM102.007 217.515C99.5007 218.449 100.246 228.355 101.16 230.33C101.528 231.125 120.375 230.727 124.043 230.723L124.582 230.473C125.32 228.337 124.999 220.018 124.779 217.515C117.25 217.516 109.514 217.111 102.007 217.515ZM134.228 217.515C129.338 218.049 131.287 226.163 131.307 230.723L153.559 230.723C156.969 229.413 155.444 220.563 155.435 217.515C148.454 217.487 141.184 217.101 134.228 217.515ZM102.992 246.255C98.8104 247.184 100.004 256.071 100.715 259.116C102.521 260.949 119.22 260.1 122.06 259.987C126.92 259.322 124.92 250.873 124.779 246.255C117.52 246.371 110.253 246.243 102.992 246.255ZM132.163 246.255C130.776 247.804 131.186 257.558 131.307 259.987C139.101 259.821 146.907 260.181 154.698 259.987C155.874 258.371 156.05 249.124 154.867 246.952C152.899 245.712 135.556 246.094 132.163 246.255ZM147.976 275.065C142.643 275.045 136.563 274.801 131.307 275.855L131.307 288.511C133.719 288.59 136.101 288.662 138.514 288.511C143.493 288.51 150.881 289.052 155.435 288.511C155.378 276.669 158.26 275.695 147.976 275.065ZM101.237 275.065C100.062 276.645 100.548 285.962 100.513 288.511C105.583 288.98 118.953 288.943 124.043 288.511L124.527 288.242C125.331 284.818 124.727 278.75 124.779 275.065L110.625 275.086C107.483 275.12 104.373 275.392 101.237 275.065ZM102.992 303.937C98.1105 304.414 100.467 315.825 101.14 316.689C103.757 317.789 119.305 317.202 123.044 317.198C126.691 315.819 124.739 307.966 124.779 303.937C119.581 303.677 107.984 303.386 102.992 303.937ZM132.163 303.937C129.683 305.278 131.025 314.271 131.307 316.709C136.831 317.87 148.105 317.181 154.244 317.198C156.885 315.568 155.626 306.688 155.435 303.937C147.812 303.656 139.804 303.765 132.163 303.937ZM107.608 332.246C97.2534 332.72 100.598 333.723 100.513 345.885L118.313 345.885C120.482 345.763 122.609 345.805 124.779 345.885C124.801 341.383 125.077 336.73 124.779 332.246L107.608 332.246ZM134.228 332.246C128.067 333.057 131.437 345.051 132.05 345.62C136.003 346.55 148.772 345.937 153.559 345.885C157.068 345.147 155.472 336.05 155.435 332.887C151.183 331.755 138.934 332.024 134.228 332.246ZM165.831 332.246C159.145 332.781 161.28 339.197 161.68 345.885C169.024 345.998 176.371 345.864 183.715 345.885C185.076 345.951 186.403 346.025 187.763 345.885L187.763 332.246L165.831 332.246ZM100.513 361.167C100.492 365.593 100.216 370.177 100.513 374.585L115.963 374.608C118.626 374.612 121.392 374.777 124.043 374.585C125.353 372.635 124.787 363.732 124.779 361.167C116.693 361.161 108.599 361.076 100.513 361.167ZM132.818 361.167C129.446 362.653 131.032 371.605 131.307 374.585L154.244 374.585C156.699 373.862 155.544 363.484 155.435 361.167C147.903 361.007 140.353 361.178 132.818 361.167Z"/>
	<path fill="#708090" transform="scale(2 2)" d="M324.668 160.176L419.782 160.176L419.789 386.11C419.792 388.882 419.93 391.734 419.782 394.498C419.774 395.685 419.762 396.873 419.782 398.061C411.998 398.666 403.864 398.052 396.034 398.071L347.312 398.062C339.78 398.059 332.194 397.837 324.668 398.061L324.668 374.585C326.296 375.947 344.31 375.309 347.731 375.301L347.731 361.167L324.668 361.167L324.668 345.885L347.731 345.885L347.731 332.246C340.051 332.258 332.342 332.048 324.668 332.246C324.515 327.254 324.666 322.195 324.668 317.198C332.208 316.262 340.127 316.696 347.731 316.709L347.731 303.506L324.668 303.506L324.678 268.878C324.701 264.431 324.347 259.924 324.668 255.487C324.787 256.961 324.688 258.507 324.668 259.987C327.175 259.574 330.079 259.933 332.646 259.959L347.731 259.987L347.731 246.255C340.07 246.265 332.316 245.938 324.668 246.255C324.533 241.264 324.667 236.22 324.668 231.225L347.731 231.225L347.731 217.515L333.387 217.508C328.441 217.505 324.918 215.744 324.668 220.261C324.411 217.964 324.605 215.529 324.631 213.217L324.668 160.176ZM356.708 246.255C356.726 250.83 356.798 255.412 356.708 259.987C357.875 259.733 368.641 259.694 369.6 259.987C372.757 259.57 375.317 259.58 378.48 259.987L378.48 246.255L356.708 246.255ZM324.668 188.99C324.753 193.499 324.688 198.014 324.668 202.524C326.958 202.522 347.62 202.621 347.731 202.524C347.61 198.013 347.742 193.502 347.731 188.99C340.055 188.985 332.339 188.807 324.668 188.99ZM356.708 188.99C356.686 193.493 356.558 198.024 356.708 202.524L378.48 202.524L378.48 188.99L356.708 188.99ZM388.109 188.99C387.737 193.34 387.856 198.162 388.109 202.524L410.706 202.524L410.706 188.99L388.109 188.99ZM356.708 217.515C356.557 222.078 356.72 226.659 356.708 231.225L378.48 231.225L378.48 217.515L364.027 217.538C361.617 217.543 359.106 217.694 356.708 217.515ZM388.109 217.515L388.109 231.225C391.855 231.233 408.435 231.752 410.706 230.723L410.706 217.515L388.109 217.515ZM388.109 246.255L388.109 259.987C394.197 259.842 404.797 259.377 410.706 259.987C410.69 255.482 410.328 250.737 410.706 246.255L388.109 246.255ZM324.668 275.065L324.668 288.511L347.731 288.511L347.731 275.065L324.668 275.065ZM361.398 275.065C359.839 275.073 358.265 275.122 356.708 275.065L356.708 288.511L374.243 288.511L378.48 288.511L378.48 275.065L361.398 275.065ZM388.109 275.065L388.109 288.511L410.706 288.511L410.706 275.065L388.109 275.065ZM356.708 303.506L356.708 316.709L378.48 316.709C378.461 312.315 378.345 307.897 378.48 303.506L356.708 303.506ZM388.109 303.506L388.109 316.709L410.706 316.709L410.706 303.506L388.109 303.506ZM356.708 332.246C356.547 336.794 356.738 341.337 356.708 345.885L378.48 345.885C378.53 341.339 378.495 336.792 378.48 332.246L356.708 332.246ZM388.109 332.246L388.109 345.885L410.706 345.885L410.706 332.246L388.109 332.246ZM356.708 361.167C356.595 365.88 356.727 370.588 356.708 375.301C363.959 375.453 371.227 375.291 378.48 375.301C378.977 371.853 378.463 365.02 378.48 361.167L356.708 361.167ZM407.004 361.167L388.109 361.167L388.109 374.585L391.6 374.585L410.706 374.585C410.714 370.116 410.796 365.634 410.706 361.167L407.004 361.167Z"/>
	<path fill="#708090" transform="scale(2 2)" d="M288.825 164.988L310.712 164.988C311.283 164.929 311.436 175 311.425 185.291L288.825 185.291L288.565 185.228C288.462 184.958 288.829 166.446 288.825 164.988Z"/>
	<path fill="#708090" transform="scale(2 2)" d="M201.203 185.291L201.203 164.988L223.001 164.988L223.001 185.291C215.808 185.653 208.416 185.303 201.203 185.291Z"/>
	<path fill="#708090" transform="scale(2 2)" d="M245.264 185.291C245.254 178.534 245.469 171.739 245.264 164.988L267.248 164.988L267.248 185.291L245.264 185.291Z"/>
	<path fill="#4E342E" transform="scale(2 2)" d="M100.513 188.99C102.941 188.231 105.084 188.195 107.608 188.238C126.571 188.175 125.298 184.003 124.779 201.727C122.651 201.885 120.449 201.749 118.313 201.727C100.949 201.611 100.083 206.017 100.513 188.99Z"/>
	<path fill="#4E342E" transform="scale(2 2)" d="M131.307 201.727C131.298 198.573 129.837 190.149 132.818 188.238C138.808 188.221 149.916 187.496 155.435 188.99C155.44 191.694 156.43 199.768 154.244 201.727C147.217 202.2 138.386 201.919 131.307 201.727Z"/>
	<path fill="#4E342E" transform="scale(2 2)" d="M187.763 201.727C184.264 201.724 163.716 202.244 162.314 201.056C161.091 200.019 160.896 190.283 162.414 188.733C165.707 187.754 184.452 187.849 187.763 188.99L187.763 201.727Z"/>
	<path fill="#4E342E" transform="scale(2 2)" d="M324.668 202.524C324.688 198.014 324.753 193.499 324.668 188.99C332.339 188.807 340.055 188.985 347.731 188.99C347.742 193.502 347.61 198.013 347.731 202.524C347.62 202.621 326.958 202.522 324.668 202.524Z"/>
	<path fill="#4E342E" transform="scale(2 2)" d="M356.708 202.524C356.558 198.024 356.686 193.493 356.708 188.99L378.48 188.99L378.48 202.524L356.708 202.524Z"/>
	<path fill="#4E342E" transform="scale(2 2)" d="M388.109 202.524C387.856 198.162 387.737 193.34 388.109 188.99L410.706 188.99L410.706 202.524L388.109 202.524Z"/>
	<path fill="#708090" transform="scale(2 2)" d="M288.825 196.456C291.263 196.394 293.707 196.442 296.146 196.456L311.425 196.456L311.425 216.993L305.063 216.993L288.825 216.993L288.825 196.456Z"/>
	<path fill="#708090" transform="scale(2 2)" d="M201.203 216.993L201.203 196.456L223.001 196.456L223.001 216.993L201.203 216.993Z"/>
	<path fill="#708090" transform="scale(2 2)" d="M245.264 216.993L245.264 196.456L267.248 196.456L267.248 216.993C259.922 217.005 252.589 217.083 245.264 216.993Z"/>
	<path fill="#4E342E" transform="scale(2 2)" d="M124.043 230.723C120.375 230.727 101.528 231.125 101.16 230.33C100.246 228.355 99.5007 218.449 102.007 217.515C109.514 217.111 117.25 217.516 124.779 217.515C124.999 220.018 125.32 228.337 124.582 230.473L124.043 230.723Z"/>
	<path fill="#4E342E" transform="scale(2 2)" d="M131.307 230.723C131.287 226.163 129.338 218.049 134.228 217.515C141.184 217.101 148.454 217.487 155.435 217.515C155.444 220.563 156.969 229.413 153.559 230.723L131.307 230.723Z"/>
	<path fill="#4E342E" transform="scale(2 2)" d="M161.68 217.515L187.763 217.515L187.763 230.723C183.237 230.884 165.123 231.153 161.954 230.198C160.908 228.725 161.616 219.889 161.68 217.515Z"/>
	<path fill="#4E342E" transform="scale(2 2)" d="M324.668 220.261C324.918 215.744 328.441 217.505 333.387 217.508L347.731 217.515L347.731 231.225L324.668 231.225C324.792 227.587 324.67 223.904 324.668 220.261Z"/>
	<path fill="#4E342E" transform="scale(2 2)" d="M356.708 231.225C356.72 226.659 356.557 222.078 356.708 217.515C359.106 217.694 361.617 217.543 364.027 217.538L378.48 217.515L378.48 231.225L356.708 231.225Z"/>
	<path fill="#4E342E" transform="scale(2 2)" d="M388.109 231.225L388.109 217.515L410.706 217.515L410.706 230.723C408.435 231.752 391.855 231.233 388.109 231.225Z"/>
	<path fill="#708090" transform="scale(2 2)" d="M245.264 248.739L245.264 228.179L267.248 228.179L267.248 248.739C259.973 249.044 252.555 248.741 245.264 248.739Z"/>
	<path fill="#708090" transform="scale(2 2)" d="M288.825 228.179L310.712 228.179C312.492 227.896 311.467 232.507 311.447 234.235L311.425 248.739L290.187 248.739C287.062 248.706 288.82 231.944 288.825 228.179Z"/>
	<path fill="#708090" transform="scale(2 2)" d="M201.203 248.739L201.203 228.179L223.001 228.179L223.001 248.739C215.739 248.648 208.466 248.736 201.203 248.739Z"/>
	<path fill="#4E342E" transform="scale(2 2)" d="M324.668 246.255C332.316 245.938 340.07 246.265 347.731 246.255L347.731 259.987L332.646 259.959C330.079 259.933 327.175 259.574 324.668 259.987C324.688 258.507 324.787 256.961 324.668 255.487L324.668 246.255Z"/>
	<path fill="#4E342E" transform="scale(2 2)" d="M122.06 259.987C119.22 260.1 102.521 260.949 100.715 259.116C100.004 256.071 98.8104 247.184 102.992 246.255C110.253 246.243 117.52 246.371 124.779 246.255C124.92 250.873 126.92 259.322 122.06 259.987Z"/>
	<path fill="#4E342E" transform="scale(2 2)" d="M131.307 259.987C131.186 257.558 130.776 247.804 132.163 246.255C135.556 246.094 152.899 245.712 154.867 246.952C156.05 249.124 155.874 258.371 154.698 259.987C146.907 260.181 139.101 259.821 131.307 259.987Z"/>
	<path fill="#4E342E" transform="scale(2 2)" d="M187.763 246.255C187.764 250.441 187.648 254.634 187.763 258.819L187.763 259.987C184.745 260.244 163.569 260.302 162.181 259.507C161.087 256.599 161.669 249.624 161.68 246.255C169.678 245.784 179.698 246.062 187.763 246.255Z"/>
	<path fill="#4E342E" transform="scale(2 2)" d="M356.708 259.987C356.798 255.412 356.726 250.83 356.708 246.255L378.48 246.255L378.48 259.987C375.317 259.58 372.757 259.57 369.6 259.987C368.641 259.694 357.875 259.733 356.708 259.987Z"/>
	<path fill="#4E342E" transform="scale(2 2)" d="M388.109 259.987L388.109 246.255L410.706 246.255C410.328 250.737 410.69 255.482 410.706 259.987C404.797 259.377 394.197 259.842 388.109 259.987Z"/>
	<path fill="#708090" transform="scale(2 2)" d="M201.203 280.202L201.203 259.987L223.001 259.987C223.159 266.71 223.003 273.474 223.001 280.202C221.58 280.602 203.934 280.204 201.203 280.202Z"/>
	<path fill="#708090" transform="scale(2 2)" d="M245.264 280.202L245.264 259.987L267.248 259.987L267.248 280.202L245.264 280.202Z"/>
	<path fill="#708090" transform="scale(2 2)" d="M288.825 280.202L288.825 259.987L311.425 259.987L311.425 280.202L288.825 280.202Z"/>
	<path fill="#4E342E" transform="scale(2 2)" d="M324.668 288.511L324.668 275.065L347.731 275.065L347.731 288.511L324.668 288.511Z"/>
	<path fill="#4E342E" transform="scale(2 2)" d="M356.708 275.065C358.265 275.122 359.839 275.073 361.398 275.065L378.48 275.065L378.48 288.511L374.243 288.511L356.708 288.511L356.708 275.065Z"/>
	<path fill="#4E342E" transform="scale(2 2)" d="M388.109 288.511L388.109 275.065L410.706 275.065L410.706 288.511L388.109 288.511Z"/>
	<path fill="#4E342E" transform="scale(2 2)" d="M131.307 275.855C136.563 274.801 142.643 275.045 147.976 275.065C158.26 275.695 155.378 276.669 155.435 288.511C150.881 289.052 143.493 288.51 138.514 288.511C136.101 288.662 133.719 288.59 131.307 288.511L131.307 275.855Z"/>
	<path fill="#4E342E" transform="scale(2 2)" d="M187.763 288.511C184.116 288.909 165.392 288.944 162.25 288.378C161.018 286.149 161.103 278.042 162.26 275.999C165.005 274.339 183.944 274.943 187.763 275.855L187.763 288.511Z"/>
	<path fill="#4E342E" transform="scale(2 2)" d="M100.513 288.511C100.548 285.962 100.062 276.645 101.237 275.065C104.373 275.392 107.483 275.12 110.625 275.086L124.779 275.065C124.727 278.75 125.331 284.818 124.527 288.242L124.043 288.511C118.953 288.943 105.583 288.98 100.513 288.511Z"/>
	<path fill="#708090" transform="scale(2 2)" d="M201.203 311.526L201.203 291.517L223.001 291.517L223.001 311.526L201.203 311.526Z"/>
	<path fill="#708090" transform="scale(2 2)" d="M245.264 311.526L245.264 291.517L267.248 291.517C267.246 298.182 267.379 304.862 267.248 311.526C264.82 311.719 262.29 311.555 259.851 311.549L245.264 311.526Z"/>
	<path fill="#708090" transform="scale(2 2)" d="M288.825 311.526C289.112 304.898 288.837 298.154 288.825 291.517L311.425 291.517C311.301 298.18 311.411 304.861 311.425 311.526L288.825 311.526Z"/>
	<path fill="#4E342E" transform="scale(2 2)" d="M324.668 303.506L347.731 303.506L347.731 316.709C340.127 316.696 332.208 316.262 324.668 317.198C324.873 312.669 324.673 308.045 324.668 303.506Z"/>
	<path fill="#4E342E" transform="scale(2 2)" d="M356.708 316.709L356.708 303.506L378.48 303.506C378.345 307.897 378.461 312.315 378.48 316.709L356.708 316.709Z"/>
	<path fill="#4E342E" transform="scale(2 2)" d="M388.109 316.709L388.109 303.506L410.706 303.506L410.706 316.709L388.109 316.709Z"/>
	<path fill="#4E342E" transform="scale(2 2)" d="M123.044 317.198C119.305 317.202 103.757 317.789 101.14 316.689C100.467 315.825 98.1105 304.414 102.992 303.937C107.984 303.386 119.581 303.677 124.779 303.937C124.739 307.966 126.691 315.819 123.044 317.198Z"/>
	<path fill="#4E342E" transform="scale(2 2)" d="M131.307 316.709C131.025 314.271 129.683 305.278 132.163 303.937C139.804 303.765 147.812 303.656 155.435 303.937C155.626 306.688 156.885 315.568 154.244 317.198C148.105 317.181 136.831 317.87 131.307 316.709Z"/>
	<path fill="#4E342E" transform="scale(2 2)" d="M187.763 303.937C187.692 305.242 187.722 306.528 187.763 307.832L187.763 312.728C187.65 314.19 187.749 315.728 187.763 317.198C184.157 317.122 163.431 318.136 161.783 316.013C161.358 313.923 161.291 306.502 162.236 304.661C164.542 303.434 183.729 303.816 187.763 303.937Z"/>
	<path fill="#708090" transform="scale(2 2)" d="M245.264 343.028L245.264 323.194L267.248 323.194L267.248 343.028L245.264 343.028Z"/>
	<path fill="#708090" transform="scale(2 2)" d="M201.203 343.891L201.203 323.194L223.001 323.194L223.001 343.891L201.203 343.891Z"/>
	<path fill="#708090" transform="scale(2 2)" d="M288.825 343.891L288.825 323.194L311.425 323.194L311.425 343.891L288.825 343.891Z"/>
	<path fill="#4E342E" transform="scale(2 2)" d="M324.668 332.246C332.342 332.048 340.051 332.258 347.731 332.246L347.731 345.885L324.668 345.885L324.668 332.246Z"/>
	<path fill="#4E342E" transform="scale(2 2)" d="M100.513 345.885C100.598 333.723 97.2534 332.72 107.608 332.246L124.779 332.246C125.077 336.73 124.801 341.383 124.779 345.885C122.609 345.805 120.482 345.763 118.313 345.885L100.513 345.885Z"/>
	<path fill="#4E342E" transform="scale(2 2)" d="M153.559 345.885C148.772 345.937 136.003 346.55 132.05 345.62C131.437 345.051 128.067 333.057 134.228 332.246C138.934 332.024 151.183 331.755 155.435 332.887C155.472 336.05 157.068 345.147 153.559 345.885Z"/>
	<path fill="#4E342E" transform="scale(2 2)" d="M161.68 345.885C161.28 339.197 159.145 332.781 165.831 332.246L187.763 332.246L187.763 345.885C186.403 346.025 185.076 345.951 183.715 345.885C176.371 345.864 169.024 345.998 161.68 345.885Z"/>
	<path fill="#4E342E" transform="scale(2 2)" d="M356.708 345.885C356.738 341.337 356.547 336.794 356.708 332.246L378.48 332.246C378.495 336.792 378.53 341.339 378.48 345.885L356.708 345.885Z"/>
	<path fill="#4E342E" transform="scale(2 2)" d="M388.109 345.885L388.109 332.246L410.706 332.246L410.706 345.885L388.109 345.885Z"/>
	<path fill="#4E342E" transform="scale(2 2)" d="M274.513 355.567L274.513 388.873L274.513 405.963L249.52 405.982C245.559 405.984 241.404 406.272 237.472 405.963L237.472 355.567L274.513 355.567Z"/>
	<path fill="#4E342E" transform="scale(2 2)" d="M324.668 361.167L347.731 361.167L347.731 375.301C344.31 375.309 326.296 375.947 324.668 374.585L324.668 361.167Z"/>
	<path fill="#4E342E" transform="scale(2 2)" d="M356.708 375.301C356.727 370.588 356.595 365.88 356.708 361.167L378.48 361.167C378.463 365.02 378.977 371.853 378.48 375.301C371.227 375.291 363.959 375.453 356.708 375.301Z"/>
	<path fill="#4E342E" transform="scale(2 2)" d="M100.513 374.585C100.216 370.177 100.492 365.593 100.513 361.167C108.599 361.076 116.693 361.161 124.779 361.167C124.787 363.732 125.353 372.635 124.043 374.585C121.392 374.777 118.626 374.612 115.963 374.608L100.513 374.585Z"/>
	<path fill="#4E342E" transform="scale(2 2)" d="M131.307 374.585C131.032 371.605 129.446 362.653 132.818 361.167C140.353 361.178 147.903 361.007 155.435 361.167C155.544 363.484 156.699 373.862 154.244 374.585L131.307 374.585Z"/>
	<path fill="#4E342E" transform="scale(2 2)" d="M187.763 361.167C187.69 362.403 187.726 363.626 187.763 364.862L187.763 373.647L187.566 374.123C186.571 375.08 164.804 374.589 161.68 374.585C161.662 370.964 161.072 365.319 162.084 361.959C165.184 360.413 183.132 361.204 187.763 361.167Z"/>
	<path fill="#4E342E" transform="scale(2 2)" d="M388.109 361.167L407.004 361.167L410.706 361.167C410.796 365.634 410.714 370.116 410.706 374.585L391.6 374.585L388.109 374.585L388.109 361.167Z"/>
	<path fill="#A3A960" transform="scale(2 2)" d="M274.513 388.873C274.947 394.472 274.485 400.329 274.513 405.963L308.092 405.966C313.573 405.967 319.203 406.245 324.668 405.963L419.782 405.963C419.715 403.326 419.746 400.697 419.782 398.061C419.762 396.873 419.774 395.685 419.782 394.498C419.964 398.309 419.922 402.149 419.782 405.963L446.22 405.952C450.751 405.95 455.327 405.806 459.853 405.963C427.384 450.293 382.027 481.284 329.683 497.496C301.546 506.21 283.608 507.985 255.131 507.975C243.196 507.971 231.871 507.892 220.048 506.196C151.64 496.382 93.7463 460.762 52.7117 405.963L92.7331 405.963C95.1283 406.31 97.7338 405.994 100.16 405.975L135.712 405.971C138.944 405.973 142.468 406.284 145.664 405.963C156.31 406.094 166.972 405.963 177.62 405.955L209.228 405.963L228.317 405.95C231.313 405.944 234.495 405.718 237.472 405.963C241.404 406.272 245.559 405.984 249.52 405.982L274.513 405.963L274.513 388.873Z"/>
	<path fill="#8F6C53" transform="scale(2 2)" d="M92.7331 395.11C124.401 394.772 156.092 395.32 187.763 395.11C187.788 398.307 188.128 401.879 187.763 405.038C185.571 404.547 182.494 405.007 180.204 405.014L159.897 405.038L111.958 405.032C109.091 405.031 97.4573 404.641 95.5817 405.038C90.7486 405.278 92.7377 400.642 92.7331 395.11Z"/>
	<path fill="#8F6C53" transform="scale(2 2)" d="M324.668 398.061C332.194 397.837 339.78 398.059 347.312 398.062L396.034 398.071C403.864 398.052 411.998 398.666 419.782 398.061C419.746 400.697 419.715 403.326 419.782 405.963L324.668 405.963C324.745 403.323 324.722 400.7 324.668 398.061Z"/>
</svg>
