<?xml version="1.0" encoding="utf-8" ?>
<svg xmlns="http://www.w3.org/2000/svg" xmlns:xlink="http://www.w3.org/1999/xlink" width="1024" height="1024">
	<path fill="#F5E6CA" transform="scale(2 2)" d="M215.773 276.013C213.113 277.742 209.232 279.053 207.193 281.466C202.683 281.634 185.733 289.02 183.194 291.338C176.033 292.316 169.268 294.654 162.458 297.006C129.106 308.523 99.6916 329.508 92.1942 365.734C89.8271 377.171 90.7388 389.505 90.7366 401.15L90.7388 446.84C48.4699 413.508 16.0856 353.181 7.26132 301.278C6.02803 294.024 4.45805 286.909 4.15221 279.527C3.55294 265.063 3.1804 243.411 4.64068 229.291C16.4745 114.869 105.053 24.9722 216.838 6.15634C232.183 3.57336 244.799 4.09033 260.315 4.0943C287.885 4.10135 303.565 5.9604 330.712 14.6159C419.312 42.8643 487.269 116.741 504.43 208.9C508.076 228.479 507.851 238.927 507.859 258.577C507.862 267.027 508.239 275.631 507.402 284.044C501.523 343.115 472.792 397.431 430.837 438.822C428.086 441.536 425.115 444.005 422.483 446.84C422.008 442.512 422.481 434.975 422.488 430.274L422.493 399.239C422.487 378.962 423.223 365.48 414.06 346.576C396.189 309.706 365.176 303.246 330.928 291.338C323.576 288.832 311.247 282.999 304.439 281.466C300.953 279.895 297.504 278.246 294.006 276.703C281.568 288.473 268.131 301.524 255.991 313.659C252.488 310.119 248.594 307.018 244.907 303.679C239.396 298.689 219.314 281.464 215.773 276.013ZM328.907 117.52C325.14 101.701 311.212 55.5127 289.073 58.1478C277.81 59.4885 268.793 66.6103 256.516 66.7869C241.502 67.0029 224.922 52.5712 211.942 60.5628C197.62 69.3812 186.932 101.848 183.194 117.52C182.086 124.803 180.981 132.144 180.104 139.458C178.802 140.392 175.077 140.2 173.382 140.523C138.151 147.229 115.571 158.449 168.618 167.477C160.335 179.668 157.111 196.328 171.368 205.909C176.331 209.244 180.293 209.078 185.676 210.614C183.38 202.573 182.13 197.815 181.933 189.574C181.629 187.32 181.659 185.271 181.933 183.016C181.712 178.6 182.309 174.205 181.933 169.797C185.089 170.535 188.534 170.783 191.757 171.128C237.429 176.022 284.001 175.129 329.581 169.797C329.596 173.356 330.193 179.809 329.581 183.016C329.563 184.841 329.764 186.767 329.581 188.571C328.462 190.7 326.897 205.387 325.3 210.614C340.145 210.708 352.385 200.818 349.708 184.992C348.533 178.045 344.48 173.751 338.973 169.797L338.973 168.351C347.169 165.472 382.001 160.425 375.895 152.495C370.176 145.069 341.319 140.633 332.082 139.458C331.029 132.125 330.289 124.809 328.907 117.52ZM231.335 182.622C227.463 175.688 216.918 175.551 213.415 183.016C209.096 200.358 235.679 199.269 231.335 182.622ZM298.33 182.622C294.316 176.481 284.419 175.396 281.19 183.016C276.863 198.664 301.883 200.661 298.33 182.622ZM247.629 214.172C238.816 219.952 255.596 223.451 264.251 219.047C265.035 218.482 265.732 218.064 265.879 217.026C266.581 212.095 260.466 215.517 258.651 216.257C253.667 218.289 251.646 215.573 247.629 214.172Z"/>
	<path fill="#556B2F" transform="scale(2 2)" d="M183.194 117.52C186.932 101.848 197.62 69.3812 211.942 60.5628C224.922 52.5712 241.502 67.0029 256.516 66.7869C268.793 66.6103 277.81 59.4885 289.073 58.1478C311.212 55.5127 325.14 101.701 328.907 117.52C325.02 117.033 319.909 117.505 315.883 117.509L183.194 117.52Z"/>
	<path fill="#4E342E" transform="scale(2 2)" d="M183.194 117.52L315.883 117.509C319.909 117.505 325.02 117.033 328.907 117.52C330.289 124.809 331.029 132.125 332.082 139.458L190.234 139.458C187.818 139.463 182.009 140.484 180.104 139.458C180.981 132.144 182.086 124.803 183.194 117.52Z"/>
	<path fill="#556B2F" transform="scale(2 2)" d="M168.618 167.477C115.571 158.449 138.151 147.229 173.382 140.523C175.077 140.2 178.802 140.392 180.104 139.458C182.009 140.484 187.818 139.463 190.234 139.458L332.082 139.458C341.319 140.633 370.176 145.069 375.895 152.495C382.001 160.425 347.169 165.472 338.973 168.351C335.995 168.778 332.423 168.911 329.581 169.797C284.001 175.129 237.429 176.022 191.757 171.128C188.534 170.783 185.089 170.535 181.933 169.797C178.862 169.087 175.545 168.847 172.421 168.351C171.153 167.996 169.919 167.696 168.618 167.477Z"/>
	<path fill="#ECBD8A" transform="scale(2 2)" d="M168.618 167.477C169.919 167.696 171.153 167.996 172.421 168.351C173.148 175.374 175.599 185.526 181.933 189.574C182.13 197.815 183.38 202.573 185.676 210.614C180.293 209.078 176.331 209.244 171.368 205.909C157.111 196.328 160.335 179.668 168.618 167.477Z"/>
	<path fill="#A59A34" transform="scale(2 2)" d="M172.421 168.351C175.545 168.847 178.862 169.087 181.933 169.797C182.309 174.205 181.712 178.6 181.933 183.016C181.659 185.271 181.629 187.32 181.933 189.574C175.599 185.526 173.148 175.374 172.421 168.351Z"/>
	<path fill="#A59A34" transform="scale(2 2)" d="M329.581 169.797C332.423 168.911 335.995 168.778 338.973 168.351L338.973 169.797C337.398 177.197 334.135 182.652 329.581 188.571C329.764 186.767 329.563 184.841 329.581 183.016C330.193 179.809 329.596 173.356 329.581 169.797Z"/>
	<path fill="#ECBD8A" transform="scale(2 2)" d="M338.973 169.797C344.48 173.751 348.533 178.045 349.708 184.992C352.385 200.818 340.145 210.708 325.3 210.614C326.897 205.387 328.462 190.7 329.581 188.571C334.135 182.652 337.398 177.197 338.973 169.797Z"/>
	<path fill="#4E342E" transform="scale(2 2)" d="M213.415 183.016C216.918 175.551 227.463 175.688 231.335 182.622C235.679 199.269 209.096 200.358 213.415 183.016ZM222.089 182.622C218.233 184.54 217.982 189.367 222.957 189.574C226.705 187.996 226.674 182.848 222.089 182.622Z"/>
	<path fill="#4E342E" transform="scale(2 2)" d="M281.19 183.016C284.419 175.396 294.316 176.481 298.33 182.622C301.883 200.661 276.863 198.664 281.19 183.016ZM289.018 183.016C284.959 184.941 285.346 189.761 290.467 189.574C294.81 188.026 293.607 183.361 289.018 183.016Z"/>
	<path fill="#8FBAB8" transform="scale(2 2)" d="M222.957 189.574C217.982 189.367 218.233 184.54 222.089 182.622C226.674 182.848 226.705 187.996 222.957 189.574Z"/>
	<path fill="#8FBAB8" transform="scale(2 2)" d="M290.467 189.574C285.346 189.761 284.959 184.941 289.018 183.016C293.607 183.361 294.81 188.026 290.467 189.574Z"/>
	<path fill="#4E342E" transform="scale(2 2)" d="M264.251 219.047C255.596 223.451 238.816 219.952 247.629 214.172C251.646 215.573 253.667 218.289 258.651 216.257C260.466 215.517 266.581 212.095 265.879 217.026C265.732 218.064 265.035 218.482 264.251 219.047Z"/>
	<path fill="#FEFEFE" transform="scale(2 2)" d="M207.193 281.466C209.232 279.053 213.113 277.742 215.773 276.013C219.314 281.464 239.396 298.689 244.907 303.679C248.594 307.018 252.488 310.119 255.991 313.659C268.131 301.524 281.568 288.473 294.006 276.703C297.504 278.246 300.953 279.895 304.439 281.466C299.112 301.014 293.976 323.621 290.467 343.574C285.548 339.927 278.369 332.095 274.076 329.548C268.255 324.491 261.941 319.955 255.991 315.045C249.87 319.665 243.626 324.401 237.946 329.548C233.761 332.76 225.409 339.758 222.089 343.574C215.848 328.429 211.523 298.461 207.193 281.466Z"/>
	<path fill="#708090" transform="scale(2 2)" d="M183.194 291.338C185.733 289.02 202.683 281.634 207.193 281.466C211.523 298.461 215.848 328.429 222.089 343.574C222.177 346.189 232.242 390.343 233.076 391.772C235.252 399.187 254.051 474.485 256.79 476.703L257.134 476.57C257.94 473.828 258.096 471.004 258.821 468.269L274.73 408.727C275.826 404.727 277.79 394.769 279.061 391.772C279.853 390.68 288.918 348.897 290.467 343.574C293.976 323.621 299.112 301.014 304.439 281.466C311.247 282.999 323.576 288.832 330.928 291.338C365.176 303.246 396.189 309.706 414.06 346.576C423.223 365.48 422.487 378.962 422.493 399.239L422.488 430.274C422.481 434.975 422.008 442.512 422.483 446.84C420.19 449.443 410.902 456.161 407.882 458.432C376.591 481.964 339.053 498.265 300.512 505.069C283.293 508.109 271.725 507.97 254.334 507.97C200.886 507.97 156.401 494.397 111.769 463.403C104.643 458.454 96.6463 453.268 90.7388 446.84L90.7366 401.15C90.7388 389.505 89.8271 377.171 92.1942 365.734C99.6916 329.508 129.106 308.523 162.458 297.006C169.268 294.654 176.033 292.316 183.194 291.338Z"/>
	<path fill="#556B2F" transform="scale(2 2)" d="M237.946 329.548C243.626 324.401 249.87 319.665 255.991 315.045C261.941 319.955 268.255 324.491 274.076 329.548C272.498 331.898 269.541 337.572 267.553 339.054C271.896 356.935 275.351 373.898 279.061 391.772C277.79 394.769 275.826 404.727 274.73 408.727L258.821 468.269C258.096 471.004 257.94 473.828 257.134 476.57L256.79 476.703C254.051 474.485 235.252 399.187 233.076 391.772C237.923 376.149 240.445 355.645 244.632 339.054C242.172 337.12 239.839 332.252 237.946 329.548Z"/>
	<path fill="#F5E6CA" transform="scale(2 2)" d="M222.089 343.574C225.409 339.758 233.761 332.76 237.946 329.548C239.839 332.252 242.172 337.12 244.632 339.054C240.445 355.645 237.923 376.149 233.076 391.772C232.242 390.343 222.177 346.189 222.089 343.574Z"/>
	<path fill="#F5E6CA" transform="scale(2 2)" d="M274.076 329.548C278.369 332.095 285.548 339.927 290.467 343.574C288.918 348.897 279.853 390.68 279.061 391.772C275.351 373.898 271.896 356.935 267.553 339.054C269.541 337.572 272.498 331.898 274.076 329.548Z"/>
</svg>
