<?xml version="1.0" encoding="utf-8" ?>
<svg xmlns="http://www.w3.org/2000/svg" xmlns:xlink="http://www.w3.org/1999/xlink" width="1024" height="1024">
	<path fill="#FEFEFE" transform="scale(2 2)" d="M435.785 261.959C435.313 245.623 437.407 233.856 423.385 220.627C406.495 204.693 379.536 205.062 363.614 222.23C350.784 236.062 354.477 246.857 353.225 261.959C349.829 267.658 353.559 273.093 358.232 276.542C363.141 280.166 363.745 285.881 367.204 290.632C369.289 293.496 377.643 300.204 377.517 301.951C377.485 304.889 377.133 308.233 377.517 311.131C373.955 312.142 370.613 314.492 367.326 316.187C357.685 320.458 349.782 324.021 343.676 333.011C343.31 330.619 343.632 328.136 343.601 325.722C343.287 300.812 327.835 290.022 308.227 280.648L308.319 280.177C309.001 276.768 310.221 273.497 311.154 270.152C322.821 228.318 317.868 146.332 266.516 136.045C225.633 127.855 203.902 163.81 197.305 199.107C192.764 223.404 194.433 249.551 202.035 273.116C202.844 275.623 203.812 278.097 204.472 280.648C204.022 281.632 192.288 287.68 188.984 290.229C183.346 281.639 168.816 274.897 158.987 271.324C155.321 270.232 151.477 268.834 148.074 267.091L134.984 331.699C134.29 335.055 133.439 343.901 131.329 346.496C131.544 330.666 128.139 314.073 128.295 297.629L128.518 297.341C130.129 295.226 132.026 293.385 133.891 291.497C129.777 287.787 125.751 283.751 121.15 280.648C116.71 283.586 112.099 287.913 108.112 291.497L114.786 297.629C114.315 300.388 114.164 303.265 113.892 306.054L111.091 335.28C110.861 337.779 110.476 340.369 110.55 342.879L110.2 343.735C109.998 343.486 93.9823 273.93 92.5617 268.741C88.7975 270.09 85.3101 272.087 81.505 273.357C71.0916 277.595 63.1021 279.976 54.9279 288.428C53.1684 290.247 50.4541 294.716 49.2068 295.84C47.6036 296.547 46.0972 301.297 45.4263 303.05C40.737 315.299 43.253 360.833 43.2246 376.25C40.4546 376.039 37.4061 376.458 35.0018 376.24C32.8231 376.042 23.0949 352.09 20.9148 346.562C10.9995 321.423 4.49496 294.478 4.48533 267.379C4.48078 254.571 3.26456 241.639 4.85373 228.888C14.525 151.289 58.7307 79.8073 126.192 39.4246C156.559 21.2468 191.502 8.07427 226.896 4.52326C240.808 3.12752 274.338 2.99539 288.031 4.78195C399.562 19.3333 484.969 104.655 504.573 215.61C506.34 225.61 507.378 232.617 507.392 242.74L507.397 258.893C507.391 267.958 507.867 277.423 506.685 286.412C503.254 312.51 497.335 330.55 487.738 354.796C484.344 363.369 481.173 368.246 477.508 376.151C474.75 376.474 471.817 376.28 469.038 376.277L452.75 376.25L452.763 358.082C452.762 353.988 452.995 337.078 448.558 335.834C446.997 334.249 445.968 331.776 444.413 330.056C438.136 323.115 429.609 320.032 421.023 317.051C418.057 314.915 414.336 312.543 410.98 311.131C411.058 309.825 411.001 308.507 410.98 307.199L410.98 303.795C411.115 302.859 411.019 301.886 410.98 300.943C425.201 293.017 422.623 288.298 429.681 278.861C431.222 276.8 433.802 276.092 435.249 273.952C437.239 271.009 439.453 264.507 435.785 261.959ZM75.71 199.553C70.8714 204.551 72.9429 210.942 77.6198 215.245C85.1804 222.202 81.8574 218.872 86.5283 227.744C89.1733 232.768 97.5671 244.004 103.036 246.288L103.036 254.794C103.552 262.228 102.546 260.938 99.0771 265.997C103.155 267.378 116.943 277.093 121.15 280.648C123.462 278.54 141.533 267.224 144.333 265.997C140.431 262.644 139.68 260.002 139.735 254.794C139.768 251.957 139.774 249.125 139.735 246.288C145.074 241.28 150.392 236.976 154.31 230.636C157.81 224.973 156.842 222.784 162.685 218.72C165.696 216.625 168.146 213.543 169.442 210.102C171.378 204.963 168.808 203.907 167.036 199.553C166.618 182.598 168.481 170.15 156.773 155.177C130.181 121.17 76.4569 138.945 75.6023 184.447C75.511 189.308 76.3581 194.36 75.7592 199.172L75.71 199.553Z"/>
	<path fill="#4E342E" transform="scale(2 2)" d="M217.33 217.46C218.32 231.078 227.294 241.555 237.986 248.991L237.986 258.531C238.001 260.385 238.463 265.666 237.986 267.091C231.083 269.816 222.584 272.974 217.33 278.325C214.9 278.661 205.943 281.428 204.472 280.648C203.812 278.097 202.844 275.623 202.035 273.116C194.433 249.551 192.764 223.404 197.305 199.107C203.902 163.81 225.633 127.855 266.516 136.045C317.868 146.332 322.821 228.318 311.154 270.152C310.221 273.497 309.001 276.768 308.319 280.177L308.227 280.648C305.112 281.048 297.384 278.057 293.701 277.33C288.018 275.417 283.187 269.501 273.348 267.091C273.271 264.24 273.33 261.382 273.348 258.531C273.369 255.351 273.406 252.171 273.348 248.991C274.815 247.39 277.954 245.928 279.761 244.319C288.728 236.337 291.58 228.925 293.701 217.46C308.579 217.997 311.13 198.818 296.979 197.384C296.985 199.447 298.663 209.639 293.548 207.297C291.682 206.444 293.762 191.181 291.365 185.211C288.581 178.277 282.655 175.163 276.157 172.416C255.699 188.88 243.497 188.983 218.547 188.95C218.557 192.92 219.09 203.732 218.331 207.036C212.649 209.76 214.42 200.06 214.319 197.384C199.462 197.043 199.671 217.084 217.33 217.46Z"/>
	<path fill="#556B2F" transform="scale(2 2)" d="M75.71 199.553L75.7592 199.172C76.3581 194.36 75.511 189.308 75.6023 184.447C76.4569 138.945 130.181 121.17 156.773 155.177C168.481 170.15 166.618 182.598 167.036 199.553L163.653 199.553C162.594 202.773 162.124 216.065 157.92 211.104C154.713 207.32 163.959 182.253 146.141 177.35C137.989 175.107 133.538 179.858 126.853 183.242C114.809 189.339 105.418 185.45 92.868 185.31C76.3245 185.124 91.2842 215.042 82.8568 210.978C79.6112 209.412 82.6879 201.801 76.0095 199.647L75.71 199.553Z"/>
	<path fill="#F5E6CA" transform="scale(2 2)" d="M237.986 248.991C227.294 241.555 218.32 231.078 217.33 217.46C199.671 217.084 199.462 197.043 214.319 197.384C214.42 200.06 212.649 209.76 218.331 207.036C219.09 203.732 218.557 192.92 218.547 188.95C243.497 188.983 255.699 188.88 276.157 172.416C282.655 175.163 288.581 178.277 291.365 185.211C293.762 191.181 291.682 206.444 293.548 207.297C298.663 209.639 296.985 199.447 296.979 197.384C311.13 198.818 308.579 217.997 293.701 217.46C291.58 228.925 288.728 236.337 279.761 244.319C277.954 245.928 274.815 247.39 273.348 248.991C273.406 252.171 273.369 255.351 273.348 258.531C273.33 261.382 273.271 264.24 273.348 267.091C283.187 269.501 288.018 275.417 293.701 277.33C306.904 295.034 272.034 317.206 255.869 300.943C240.432 317.63 203.219 294.906 217.33 278.325C222.584 272.974 231.083 269.816 237.986 267.091C238.463 265.666 238.001 260.385 237.986 258.531L237.986 248.991Z"/>
	<path fill="#F5E6CA" transform="scale(2 2)" d="M103.036 246.288C97.5671 244.004 89.1733 232.768 86.5283 227.744C81.8574 218.872 85.1804 222.202 77.6198 215.245C72.9429 210.942 70.8714 204.551 75.71 199.553L76.0095 199.647C82.6879 201.801 79.6112 209.412 82.8568 210.978C91.2842 215.042 76.3245 185.124 92.868 185.31C105.418 185.45 114.809 189.339 126.853 183.242C133.538 179.858 137.989 175.107 146.141 177.35C163.959 182.253 154.713 207.32 157.92 211.104C162.124 216.065 162.594 202.773 163.653 199.553L167.036 199.553C168.808 203.907 171.378 204.963 169.442 210.102C168.146 213.543 165.696 216.625 162.685 218.72C156.842 222.784 157.81 224.973 154.31 230.636C150.392 236.976 145.074 241.28 139.735 246.288C139.774 249.125 139.768 251.957 139.735 254.794C139.68 260.002 140.431 262.644 144.333 265.997C141.533 267.224 123.462 278.54 121.15 280.648C116.943 277.093 103.155 267.378 99.0771 265.997C102.546 260.938 103.552 262.228 103.036 254.794L103.036 246.288Z"/>
	<path fill="#556B2F" transform="scale(2 2)" d="M435.785 261.959C432.396 262.02 430.997 263.545 429.05 265.997C428.884 253.417 426.201 239.936 410.748 240.194C403.412 240.317 397.645 244.827 390.61 245.683C376.482 247.403 360.005 229.342 360.648 265.997C358.205 263.528 356.871 262.053 353.225 261.959C354.477 246.857 350.784 236.062 363.614 222.23C379.536 205.062 406.495 204.693 423.385 220.627C437.407 233.856 435.313 245.623 435.785 261.959Z"/>
	<path fill="#F5E6CA" transform="scale(2 2)" d="M429.05 265.997C430.997 263.545 432.396 262.02 435.785 261.959C439.453 264.507 437.239 271.009 435.249 273.952C433.802 276.092 431.222 276.8 429.681 278.861C422.623 288.298 425.201 293.017 410.98 300.943C411.019 301.886 411.115 302.859 410.98 303.795L410.98 307.199C411.001 308.507 411.058 309.825 410.98 311.131C414.336 312.543 418.057 314.915 421.023 317.051C418.245 322.532 412.698 342.263 410.98 348.716C405.64 342.803 399.842 337.233 394.418 331.377C389.521 336.989 384.479 342.512 379.271 347.839C375.277 338.251 370.493 326.004 367.326 316.187C370.613 314.492 373.955 312.142 377.517 311.131C377.133 308.233 377.485 304.889 377.517 301.951C377.643 300.204 369.289 293.496 367.204 290.632C363.745 285.881 363.141 280.166 358.232 276.542C353.559 273.093 349.829 267.658 353.225 261.959C356.871 262.053 358.205 263.528 360.648 265.997C360.005 229.342 376.482 247.403 390.61 245.683C397.645 244.827 403.412 240.317 410.748 240.194C426.201 239.936 428.884 253.417 429.05 265.997Z"/>
	<path fill="#708090" transform="scale(2 2)" d="M148.074 267.091C151.477 268.834 155.321 270.232 158.987 271.324C159.012 282.757 157.796 294.289 158.209 305.687C154.83 305.653 151.453 305.663 148.074 305.687C152.333 309.937 157.584 313.081 162.105 317.051C160.325 321.166 158.037 325.106 156.037 329.125L139.669 361.295C137.371 365.771 133.364 371.741 132.35 376.542C126.504 376.898 116.313 376.986 110.55 376.542C108.565 372.34 106.055 368.219 103.927 364.06L88.0023 332.275C85.4405 327.181 82.5795 322.21 80.1593 317.051C84.2972 313.55 89.7774 310.043 94.3625 307.199C90.8102 306.186 87.6337 305.837 83.9743 305.687C84.0418 298.009 83.0258 280.819 81.505 273.357C85.3101 272.087 88.7975 270.09 92.5617 268.741C93.9823 273.93 109.998 343.486 110.2 343.735L110.55 342.879C110.121 353.351 114.147 365.933 115.564 376.542L126.676 376.542C127.885 366.552 131.583 356.581 131.329 346.496C133.439 343.901 134.29 335.055 134.984 331.699L148.074 267.091Z"/>
	<path fill="#556B2F" transform="scale(2 2)" d="M158.987 271.324C168.816 274.897 183.346 281.639 188.984 290.229C170.799 301.997 168.721 320.202 168.719 339.233L168.731 364.224C168.734 368.309 168.896 372.464 168.727 376.542L132.35 376.542C133.364 371.741 137.371 365.771 139.669 361.295L156.037 329.125C158.037 325.106 160.325 321.166 162.105 317.051C157.584 313.081 152.333 309.937 148.074 305.687C151.453 305.663 154.83 305.653 158.209 305.687C157.796 294.289 159.012 282.757 158.987 271.324Z"/>
	<path fill="#556B2F" transform="scale(2 2)" d="M49.2068 295.84C50.4541 294.716 53.1684 290.247 54.9279 288.428C63.1021 279.976 71.0916 277.595 81.505 273.357C83.0258 280.819 84.0418 298.009 83.9743 305.687C87.6337 305.837 90.8102 306.186 94.3625 307.199C89.7774 310.043 84.2972 313.55 80.1593 317.051C82.5795 322.21 85.4405 327.181 88.0023 332.275L103.927 364.06C106.055 368.219 108.565 372.34 110.55 376.542L62.903 376.548C59.5607 376.549 45.7346 377.041 43.2246 376.25L43.2201 335.613C43.2114 320.209 41.7691 309.813 49.2068 295.84Z"/>
	<path fill="#708090" transform="scale(2 2)" d="M293.701 277.33C297.384 278.057 305.112 281.048 308.227 280.648C327.835 290.022 343.287 300.812 343.601 325.722C343.632 328.136 343.31 330.619 343.676 333.011C344.032 337.296 343.65 341.81 343.653 346.12L343.676 376.542C343.106 380.672 343.737 385.173 343.676 389.358L321.902 389.343C318.578 389.331 315.094 388.944 311.801 389.358C310.537 387.361 309.746 382.78 308.85 381.716C308.839 382.907 308.979 383.973 309.3 385.122C308.713 386.588 308.126 387.99 307.334 389.358C304.813 389.208 302.212 389.35 299.68 389.352L231.597 389.355C223.033 389.356 214.323 389.741 205.783 389.358C204.601 388.035 203.815 386.73 203.047 385.122C202.298 386.517 201.586 387.879 201.015 389.358C197.682 389.05 193.993 389.355 190.633 389.355L168.727 389.358L168.727 376.542C168.896 372.464 168.734 368.309 168.731 364.224L168.719 339.233C168.721 320.202 170.799 301.997 188.984 290.229C192.288 287.68 204.022 281.632 204.472 280.648C205.943 281.428 214.9 278.661 217.33 278.325C203.219 294.906 240.432 317.63 255.869 300.943C272.034 317.206 306.904 295.034 293.701 277.33ZM201.753 351.217C201.75 355.483 201.183 377.467 202.148 379.579C202.949 379.819 203.64 379.804 204.472 379.783C204.387 371.887 205.374 358.455 204.342 351.093C203.559 350.833 202.564 351.098 201.753 351.217ZM308.227 351.217C308.224 354.841 307.764 377.904 308.595 379.514C309.366 379.887 310.089 379.807 310.919 379.783L310.927 361.58C310.926 356.861 312.834 351.219 308.227 351.217Z"/>
	<path fill="#556B2F" transform="scale(2 2)" d="M110.55 342.879C110.476 340.369 110.861 337.779 111.091 335.28L113.892 306.054C114.164 303.265 114.315 300.388 114.786 297.629L108.112 291.497C112.099 287.913 116.71 283.586 121.15 280.648C125.751 283.751 129.777 287.787 133.891 291.497C132.026 293.385 130.129 295.226 128.518 297.341L128.295 297.629C128.139 314.073 131.544 330.666 131.329 346.496C131.583 356.581 127.885 366.552 126.676 376.542L115.564 376.542C114.147 365.933 110.121 353.351 110.55 342.879Z"/>
	<path fill="#949C56" transform="scale(2 2)" d="M343.676 333.011C349.782 324.021 357.685 320.458 367.326 316.187C370.493 326.004 375.277 338.251 379.271 347.839C384.479 342.512 389.521 336.989 394.418 331.377C399.842 337.233 405.64 342.803 410.98 348.716C412.698 342.263 418.245 322.532 421.023 317.051C429.609 320.032 438.136 323.115 444.413 330.056C445.968 331.776 446.997 334.249 448.558 335.834C454.694 348.568 452.763 362.793 452.75 376.542C422.071 376.166 391.334 376.546 360.648 376.542C360.766 373.351 361.187 355.5 360.005 353.948L359.36 354.017C358.345 355.643 358.807 373.315 358.83 376.542C356.527 377.108 346.815 376.538 343.676 376.542L343.653 346.12C343.65 341.81 344.032 337.296 343.676 333.011ZM428.236 356.001L428.236 376.25L431.51 376.25L431.51 356.001L428.236 356.001Z"/>
	<path fill="#FEFEFE" transform="scale(2 2)" d="M204.472 379.783C203.64 379.804 202.949 379.819 202.148 379.579C201.183 377.467 201.75 355.483 201.753 351.217C202.564 351.098 203.559 350.833 204.342 351.093C205.374 358.455 204.387 371.887 204.472 379.783Z"/>
	<path fill="#FEFEFE" transform="scale(2 2)" d="M310.919 379.783C310.089 379.807 309.366 379.887 308.595 379.514C307.764 377.904 308.224 354.841 308.227 351.217C312.834 351.219 310.926 356.861 310.927 361.58L310.919 379.783Z"/>
	<path fill="#556B2F" transform="scale(2 2)" d="M358.83 376.542C358.807 373.315 358.345 355.643 359.36 354.017L360.005 353.948C361.187 355.5 360.766 373.351 360.648 376.542L358.83 376.542Z"/>
	<path fill="#556B2F" transform="scale(2 2)" d="M428.236 376.25L428.236 356.001L431.51 356.001L431.51 376.25L428.236 376.25Z"/>
	<defs>
		<linearGradient id="gradient_0" gradientUnits="userSpaceOnUse" x1="253.12828" y1="507.66287" x2="255.70326" y2="372.77548">
			<stop offset="0" stop-color="#B6B692"/>
			<stop offset="1" stop-color="#D2D2BB"/>
		</linearGradient>
	</defs>
	<path fill="url(#gradient_0)" transform="scale(2 2)" d="M43.2246 376.25C45.7346 377.041 59.5607 376.549 62.903 376.548L110.55 376.542C116.313 376.986 126.504 376.898 132.35 376.542L168.727 376.542L168.727 389.358L190.633 389.355C193.993 389.355 197.682 389.05 201.015 389.358C202.511 389.507 204.331 389.81 205.783 389.358C214.323 389.741 223.033 389.356 231.597 389.355L299.68 389.352C302.212 389.35 304.813 389.208 307.334 389.358C308.833 389.429 310.301 389.424 311.801 389.358C315.094 388.944 318.578 389.331 321.902 389.343L343.676 389.358C343.737 385.173 343.106 380.672 343.676 376.542C346.815 376.538 356.527 377.108 358.83 376.542L360.648 376.542C391.334 376.546 422.071 376.166 452.75 376.542C457.731 377.358 472.453 376.626 477.948 376.542C474.385 385.241 466.36 397.162 460.728 404.813C421.108 458.635 361.32 496.087 295.161 506.087C275.693 509.03 235.677 509.117 216.344 505.999C148.069 494.987 87.2852 456.607 47.9352 399.461C42.8976 392.145 37.2867 384.668 33.6438 376.542C36.1194 376.575 41.019 377.028 43.2246 376.25Z"/>
	<path fill="#FEFEFE" transform="scale(2 2)" d="M309.3 385.122C308.979 383.973 308.839 382.907 308.85 381.716C309.746 382.78 310.537 387.361 311.801 389.358C310.301 389.424 308.833 389.429 307.334 389.358C308.126 387.99 308.713 386.588 309.3 385.122Z"/>
	<path fill="#FEFEFE" transform="scale(2 2)" d="M203.047 385.122C203.815 386.73 204.601 388.035 205.783 389.358C204.331 389.81 202.511 389.507 201.015 389.358C201.586 387.879 202.298 386.517 203.047 385.122Z"/>
</svg>
