<?xml version="1.0" encoding="utf-8" ?>
<svg xmlns="http://www.w3.org/2000/svg" xmlns:xlink="http://www.w3.org/1999/xlink" width="1024" height="1024">
	<defs>
		<linearGradient id="gradient_0" gradientUnits="userSpaceOnUse" x1="244.30855" y1="507.43777" x2="267.41876" y2="2.8493757">
			<stop offset="0" stop-color="#E5DDC6"/>
			<stop offset="1" stop-color="#F8F8F2"/>
		</linearGradient>
	</defs>
	<path fill="url(#gradient_0)" transform="scale(2 2)" d="M270.399 507.801C257.275 507.81 242.841 508.485 229.849 507.174C176.974 501.835 121.186 476.428 82.4859 440.046C42.3962 402.357 15.3596 351.313 6.87309 296.935C3.05053 272.442 2.48424 239.275 6.90099 214.721C16.3239 162.335 41.257 112.321 79.8443 75.3112C82.4347 72.8267 84.7977 70.0526 87.4736 67.67C100.4 56.1605 112.629 48.0847 127.236 39.3646C147.4 27.3271 169.794 18.1749 192.403 11.8657C211.921 6.41898 220.063 4.11906 241.761 3.56203C257.853 3.57429 273.025 3.84409 289.028 4.36965C296.033 4.59968 303.149 4.30297 310.079 5.70733C314.946 6.69362 317.769 10.7421 322.311 12.3354C348.458 21.5085 376.039 32.4714 398.969 48.2697C434.081 72.4618 462.538 104.346 481.761 142.51C495.795 170.371 507.405 208.19 507.73 239.494L507.752 264.002C507.748 271.008 507.902 278.001 507.197 284.982C501.095 345.381 471.24 402.858 426.168 443.329C387.25 478.275 323.973 507.309 270.399 507.801ZM383.6 161.383C374.842 153.091 366.567 144.196 358.327 135.392C349.751 126.228 343.979 113.783 331.295 122.42L342.209 142.906C346.112 150.1 350.163 157.262 353.667 164.66C350.224 165.412 310.6 170.153 309.462 169.723C299.957 158.93 289.745 148.258 279.491 138.17C276.462 138.571 273.435 138.956 270.399 139.293C270.402 146.556 274.226 160.698 275.699 168.534C267.485 169.393 261.064 164.615 257.12 176.04C276.778 176.956 271.477 172.423 288.429 182.394C312.419 196.506 327.958 192.829 354.842 191.656C358.794 191.483 365.893 191.526 369.511 190.789C371.625 190.691 373.711 190.72 375.826 190.789C374.823 194.297 370.709 201.458 373.684 204.776C375.809 205.074 397.997 202.898 399.175 201.688C402.22 198.559 401.123 190.937 404.571 187.948C405.748 186.927 407.655 187.299 409.069 186.391C412.185 186.877 436.194 183.561 440.714 182.594C447.447 181.154 451.776 176.276 453.68 169.723L453.442 169.526C448.755 165.713 438.483 159.698 432.594 158.443C425.14 156.854 392.489 160.441 383.6 161.383ZM190.743 209.451C191.645 192.602 188.365 176.446 176.853 163.537C162.932 147.926 137.598 146.764 122.17 160.84C106.392 175.235 108.082 191.07 107.273 209.451C99.3106 210.339 101.069 223.542 106.013 227.301C112.773 232.44 111.117 232.151 114.319 240.131C117.391 247.785 126.448 256.113 127.047 257.898C127.348 262.832 127.1 268.034 126.713 272.957C126.421 276.66 124.422 279.994 128.087 280.008L127.852 280.042C126.052 280.292 122.441 279.943 121.071 281.011L121.211 281.509L121.211 281.509C88.9646 277.647 61.2461 302.154 57.4289 333.992C53.3697 367.849 64.4192 361.113 93.72 361.112L143.686 361.103L147.52 361.103C158.463 361.312 169.687 361.508 180.625 361.103L212.414 361.111C222.529 361.133 237.032 364.066 240.289 351.009C243.142 339.568 235.959 317.977 230.228 308.644C220.896 293.448 209.025 285.606 191.754 281.509C186.373 281.131 181.116 281.616 175.726 280.912L175.474 280.562C174.433 280.203 173.399 280.121 172.312 280.008C171.538 273.267 170.815 267.034 171.212 260.158L171.212 257.898C180.034 251.451 183.047 239.943 186.682 230.583C196.283 225.406 199.741 211.202 190.743 209.451ZM338.151 246.992C331.615 248.645 325.236 251.76 318.913 254.133C308.543 258.026 290.741 263.809 281.426 269.203C265.027 255.024 255.291 280.262 271.707 284.64C267.411 291.974 260.377 306.738 257.12 314.44L250.477 314.44C250.332 354.375 305.276 351.167 303.355 314.44C301.139 314.23 298.928 314.287 296.711 314.44C292.585 304.381 285.2 290.433 279.491 281.509C280.185 280.98 280.562 280.926 281.426 280.912C297.41 279.326 322.295 272.861 338.151 269.203C339.295 296.66 344.13 328.537 343.779 355.159C331.037 357.198 320.149 358.746 317.886 373.398L381.56 373.398C378.19 358.918 370.062 356.022 355.73 355.159C356.644 345.088 357.111 334.958 357.786 324.867L361.105 274.982C361.206 273.194 360.921 270.895 361.437 269.203C366.335 270.927 371.371 271.909 376.435 273.004L396.533 277.147C403.411 278.509 410.507 280.464 417.511 280.912C417.757 281.754 418.57 282.642 419.202 283.231C414.59 292.79 407.861 304.908 402.407 313.987C400.777 313.835 399.177 313.916 397.545 313.987C396.183 357.153 454.766 349.693 450.31 313.987C448.267 313.936 446.24 313.897 444.198 313.987C442.138 310.658 440.444 307.096 438.598 303.644L428.457 284.64C445.562 276.629 429.403 255.359 417.511 268.089C403.995 263.827 388.264 257.19 374.779 252.059C370.351 250.374 365.964 248.383 361.437 246.992C360.285 240.071 362.928 230.783 361.125 223.524C358.438 212.706 341.29 212.027 338.533 223.173C337.721 226.455 338.118 230.275 338.127 233.639L338.151 246.992Z"/>
	<path fill="#708090" transform="scale(2 2)" d="M331.295 122.42C343.979 113.783 349.751 126.228 358.327 135.392C366.567 144.196 374.842 153.091 383.6 161.383C387.298 165.972 394.02 171.952 399.073 175.076C407.336 175.073 412.555 176.414 409.069 186.391C407.655 187.299 405.748 186.927 404.571 187.948C401.123 190.937 402.22 198.559 399.175 201.688C397.997 202.898 375.809 205.074 373.684 204.776C370.709 201.458 374.823 194.297 375.826 190.789C373.711 190.72 371.625 190.691 369.511 190.789C365.34 190.663 356.658 169.729 353.667 164.66C350.163 157.262 346.112 150.1 342.209 142.906L331.295 122.42ZM400.402 176.04C395.623 176.583 385.509 177.235 381.418 178.608C375.403 180.628 374.718 191.586 381.56 192.526C387 192.011 399.155 191.502 403.478 188.634C404.947 185.59 406.131 175.557 400.402 176.04Z"/>
	<path fill="#708090" transform="scale(2 2)" d="M275.699 168.534C274.226 160.698 270.402 146.556 270.399 139.293C273.435 138.956 276.462 138.571 279.491 138.17C289.745 148.258 299.957 158.93 309.462 169.723C306.763 171.786 304.514 173.329 302.417 176.04C297.924 175.514 291.028 175.79 286.407 176.04C292.139 166.402 282.741 168.306 276.123 168.818L275.699 168.534Z"/>
	<path fill="#937042" transform="scale(2 2)" d="M107.273 209.451C108.082 191.07 106.392 175.235 122.17 160.84C137.598 146.764 162.932 147.926 176.853 163.537C188.365 176.446 191.645 192.602 190.743 209.451C190.375 210.57 189.833 211.597 189.309 212.649C186.285 203.4 186.916 188.271 176.761 182.186C174.449 183.031 172.466 184.545 170.343 185.763C154.515 194.839 132.995 191.612 118.192 182.186C113.668 188.769 111.637 197.514 110.671 205.322C110.277 208.51 111.499 214.162 107.273 209.451Z"/>
	<path fill="#82A6D0" transform="scale(2 2)" d="M383.6 161.383C392.489 160.441 425.14 156.854 432.594 158.443C438.483 159.698 448.755 165.713 453.442 169.526L453.68 169.723C451.776 176.276 447.447 181.154 440.714 182.594C436.194 183.561 412.185 186.877 409.069 186.391C412.555 176.414 407.336 175.073 399.073 175.076C394.02 171.952 387.298 165.972 383.6 161.383Z"/>
	<path fill="#82A6D0" transform="scale(2 2)" d="M353.667 164.66C356.658 169.729 365.34 190.663 369.511 190.789C365.893 191.526 358.794 191.483 354.842 191.656C327.958 192.829 312.419 196.506 288.429 182.394C271.477 172.423 276.778 176.956 257.12 176.04C261.064 164.615 267.485 169.393 275.699 168.534L276.123 168.818C282.741 168.306 292.139 166.402 286.407 176.04C291.028 175.79 297.924 175.514 302.417 176.04C304.514 173.329 306.763 171.786 309.462 169.723C310.6 170.153 350.224 165.412 353.667 164.66Z"/>
	<path fill="#82A6D0" transform="scale(2 2)" d="M381.56 192.526C374.718 191.586 375.403 180.628 381.418 178.608C385.509 177.235 395.623 176.583 400.402 176.04C406.131 175.557 404.947 185.59 403.478 188.634C399.155 191.502 387 192.011 381.56 192.526Z"/>
	<path fill="#F5E6CA" transform="scale(2 2)" d="M107.273 209.451C111.499 214.162 110.277 208.51 110.671 205.322C111.637 197.514 113.668 188.769 118.192 182.186C132.995 191.612 154.515 194.839 170.343 185.763C172.466 184.545 174.449 183.031 176.761 182.186C186.916 188.271 186.285 203.4 189.309 212.649C189.833 211.597 190.375 210.57 190.743 209.451C199.741 211.202 196.283 225.406 186.682 230.583C183.047 239.943 180.034 251.451 171.212 257.898C151.088 268.292 148.996 268.747 127.047 257.898C126.448 256.113 117.391 247.785 114.319 240.131C111.117 232.151 112.773 232.44 106.013 227.301C101.069 223.542 99.3106 210.339 107.273 209.451Z"/>
	<path fill="#556B2F" transform="scale(2 2)" d="M338.151 246.992L338.127 233.639C338.118 230.275 337.721 226.455 338.533 223.173C341.29 212.027 358.438 212.706 361.125 223.524C362.928 230.783 360.285 240.071 361.437 246.992C361.006 253.015 361.07 262.801 361.284 269.038L361.437 269.203C360.921 270.895 361.206 273.194 361.105 274.982L357.786 324.867C357.111 334.958 356.644 345.088 355.73 355.159C370.062 356.022 378.19 358.918 381.56 373.398L317.886 373.398C320.149 358.746 331.037 357.198 343.779 355.159C344.13 328.537 339.295 296.66 338.151 269.203L338.151 246.992Z"/>
	<path fill="#4E342E" transform="scale(2 2)" d="M281.426 269.203C290.741 263.809 308.543 258.026 318.913 254.133C325.236 251.76 331.615 248.645 338.151 246.992L338.151 269.203C322.295 272.861 297.41 279.326 281.426 280.912C282.715 277.278 282.064 272.884 281.426 269.203Z"/>
	<defs>
		<linearGradient id="gradient_1" gradientUnits="userSpaceOnUse" x1="431.58539" y1="257.26938" x2="362.73056" y2="273.23016">
			<stop offset="0" stop-color="#6B5121"/>
			<stop offset="1" stop-color="#802B33"/>
		</linearGradient>
	</defs>
	<path fill="url(#gradient_1)" transform="scale(2 2)" d="M361.437 269.203L361.284 269.038C361.07 262.801 361.006 253.015 361.437 246.992C365.964 248.383 370.351 250.374 374.779 252.059C388.264 257.19 403.995 263.827 417.511 268.089C429.403 255.359 445.562 276.629 428.457 284.64C425.058 285.008 422.306 284.732 419.202 283.231C418.57 282.642 417.757 281.754 417.511 280.912C410.507 280.464 403.411 278.509 396.533 277.147L376.435 273.004C371.371 271.909 366.335 270.927 361.437 269.203Z"/>
	<path fill="#F5E6CA" transform="scale(2 2)" d="M128.087 280.008C124.422 279.994 126.421 276.66 126.713 272.957C127.1 268.034 127.348 262.832 127.047 257.898C127.941 270.241 155.029 280.586 168.973 264.164C170.006 262.947 170.917 261.757 171.212 260.158C170.815 267.034 171.538 273.267 172.312 280.008L128.087 280.008Z"/>
	<path fill="#CEB58C" transform="scale(2 2)" d="M127.047 257.898C148.996 268.747 151.088 268.292 171.212 257.898L171.212 260.158C170.917 261.757 170.006 262.947 168.973 264.164C155.029 280.586 127.941 270.241 127.047 257.898Z"/>
	<path fill="#556B2F" transform="scale(2 2)" d="M271.707 284.64C255.291 280.262 265.027 255.024 281.426 269.203C282.064 272.884 282.715 277.278 281.426 280.912C280.562 280.926 280.185 280.98 279.491 281.509C277.741 283.695 275.06 284.266 272.42 284.564L271.707 284.64Z"/>
	<path fill="#FEFEFE" transform="scale(2 2)" d="M128.087 280.008L172.312 280.008C173.399 280.121 174.433 280.203 175.474 280.562L175.726 280.912C174.698 286.509 172.195 292.021 170.339 297.409L158.969 330.387C156.399 320.724 155.634 308.614 153.151 298.165C157.963 297.995 158.235 290.856 156.557 287.555C152.963 280.488 142.606 281.669 140.849 289.267C140.131 292.372 140.906 297.388 144.61 298.165C143.444 304.009 139.264 327.589 137.875 330.387C137.047 328.334 136.467 326.109 135.778 324.002L131.541 311.338C128.155 301.386 124.423 291.513 121.211 281.509L121.071 281.011C122.441 279.943 126.052 280.292 127.852 280.042L128.087 280.008Z"/>
	<path fill="#4E342E" transform="scale(2 2)" d="M175.726 280.912C181.116 281.616 186.373 281.131 191.754 281.509C190.607 292.944 186.348 307.789 184.408 319.745L175.726 319.745C175.658 322.926 174.78 327.683 176.761 330.387C173.853 340.025 167.173 352.187 165.345 361.103C160.159 360.857 154.828 361.099 149.629 361.103C152.261 350.725 156.424 340.748 158.969 330.387L170.339 297.409C172.195 292.021 174.698 286.509 175.726 280.912Z"/>
	<path fill="#556B2F" transform="scale(2 2)" d="M121.211 281.509C117.321 282.139 113.607 281.514 109.729 281.509C110.327 294.228 112.686 307.063 114.007 319.745C115.802 319.97 117.515 320.242 119.263 320.712C119.224 335.552 127.569 347.155 131.723 361.103C133.569 361.097 142.576 360.572 143.686 361.103L93.72 361.112C64.4192 361.113 53.3697 367.849 57.4289 333.992C61.2461 302.154 88.9646 277.647 121.211 281.509Z"/>
	<path fill="#8FB35D" transform="scale(2 2)" d="M271.707 284.64L272.42 284.564C275.06 284.266 277.741 283.695 279.491 281.509C285.2 290.433 292.585 304.381 296.711 314.44C298.928 314.287 301.139 314.23 303.355 314.44C305.276 351.167 250.332 354.375 250.477 314.44L257.12 314.44C260.377 306.738 267.411 291.974 271.707 284.64ZM274.688 290.424C272.151 293.564 264.617 309.204 262.582 313.976L262.823 314.358L263.312 314.44L274.688 314.44C274.689 306.616 274.253 298.498 274.873 290.711L274.688 290.424ZM279.491 291.583L279.491 314.44L291.601 314.44C290.324 311.748 281.452 292.601 279.491 291.583Z"/>
	<path fill="#4E342E" transform="scale(2 2)" d="M109.729 281.509C113.607 281.514 117.321 282.139 121.211 281.509L121.211 281.509C124.423 291.513 128.155 301.386 131.541 311.338L135.778 324.002C136.467 326.109 137.047 328.334 137.875 330.387C141.053 340.496 145.267 350.744 147.52 361.103L143.686 361.103C142.576 360.572 133.569 361.097 131.723 361.103C127.569 347.155 119.224 335.552 119.263 320.712C117.515 320.242 115.802 319.97 114.007 319.745C112.686 307.063 110.327 294.228 109.729 281.509Z"/>
	<path fill="#556B2F" transform="scale(2 2)" d="M191.754 281.509C209.025 285.606 220.896 293.448 230.228 308.644C235.959 317.977 243.142 339.568 240.289 351.009C237.032 364.066 222.529 361.133 212.414 361.111L180.625 361.103C175.574 360.861 170.407 361.091 165.345 361.103C167.173 352.187 173.853 340.025 176.761 330.387C174.78 327.683 175.658 322.926 175.726 319.745L184.408 319.745C186.348 307.789 190.607 292.944 191.754 281.509Z"/>
	<path fill="#708090" transform="scale(2 2)" d="M144.61 298.165C140.906 297.388 140.131 292.372 140.849 289.267C142.606 281.669 152.963 280.488 156.557 287.555C158.235 290.856 157.963 297.995 153.151 298.165C150.312 298.383 147.454 298.149 144.61 298.165Z"/>
	<path fill="#8FB35D" transform="scale(2 2)" d="M419.202 283.231C422.306 284.732 425.058 285.008 428.457 284.64L438.598 303.644C440.444 307.096 442.138 310.658 444.198 313.987C446.24 313.897 448.267 313.936 450.31 313.987C454.766 349.693 396.183 357.153 397.545 313.987C399.177 313.916 400.777 313.835 402.407 313.987C407.861 304.908 414.59 292.79 419.202 283.231ZM421.492 288.188C418.403 293.933 415.245 299.629 412.288 305.444C411.66 306.679 407.735 313.178 409.069 313.987L421.492 313.987C421.492 311.406 421.72 288.556 421.492 288.188ZM425.855 289.166L425.855 313.987C430.021 313.688 434.243 314.022 438.422 313.987C438.536 312.683 426.927 290.16 425.855 289.166Z"/>
	<path fill="#F5E6CA" transform="scale(2 2)" d="M409.069 313.987C407.735 313.178 411.66 306.679 412.288 305.444C415.245 299.629 418.403 293.933 421.492 288.188C421.72 288.556 421.492 311.406 421.492 313.987L409.069 313.987Z"/>
	<path fill="#F5E6CA" transform="scale(2 2)" d="M425.855 313.987L425.855 289.166C426.927 290.16 438.536 312.683 438.422 313.987C434.243 314.022 430.021 313.688 425.855 313.987Z"/>
	<path fill="#F5E6CA" transform="scale(2 2)" d="M263.312 314.44L262.823 314.358L262.582 313.976C264.617 309.204 272.151 293.564 274.688 290.424L274.873 290.711C274.253 298.498 274.689 306.616 274.688 314.44L263.312 314.44Z"/>
	<path fill="#F5E6CA" transform="scale(2 2)" d="M279.491 314.44L279.491 291.583C281.452 292.601 290.324 311.748 291.601 314.44L279.491 314.44Z"/>
	<path fill="#82A6D0" transform="scale(2 2)" d="M144.61 298.165C147.454 298.149 150.312 298.383 153.151 298.165C155.634 308.614 156.399 320.724 158.969 330.387C156.424 340.748 152.261 350.725 149.629 361.103C154.828 361.099 160.159 360.857 165.345 361.103C170.407 361.091 175.574 360.861 180.625 361.103C169.687 361.508 158.463 361.312 147.52 361.103C145.267 350.744 141.053 340.496 137.875 330.387C139.264 327.589 143.444 304.009 144.61 298.165Z"/>
</svg>
