<?xml version="1.0" encoding="utf-8" ?>
<svg xmlns="http://www.w3.org/2000/svg" xmlns:xlink="http://www.w3.org/1999/xlink" width="1024" height="1024">
	<defs>
		<linearGradient id="gradient_0" gradientUnits="userSpaceOnUse" x1="489.71243" y1="350.26053" x2="22.583651" y2="160.81088">
			<stop offset="0" stop-color="#8F9D5E"/>
			<stop offset="1" stop-color="#B3BF86"/>
		</linearGradient>
	</defs>
	<path fill="url(#gradient_0)" transform="scale(2 2)" d="M276.52 507.979L249.449 507.989C190.389 507.989 130.67 482.276 86.8677 443.255C42.9693 404.149 13.438 348.802 5.78854 290.461C2.66075 266.606 3.14725 235.586 7.45065 211.995C20.4295 140.849 63.166 77.1238 125.303 39.8734C156.858 20.9569 198.6 6.0825 235.705 4.03479C249.505 3.83739 267.309 3.21442 280.87 4.36523C394.335 13.9944 489.895 106.615 505.972 218.964C509.373 242.724 508.925 276.379 504.824 299.819C485.14 412.296 391.085 499.347 276.52 507.979ZM256.161 54.2882C216.086 86.0807 173.35 100.249 122.762 103.38C111.511 104.077 100.256 103.213 89.0439 103.772L89.0399 179.972C89.04 199.89 88.2514 220.126 90.3465 239.951C100.117 332.404 163.246 402.968 242.166 446.565C246.806 449.128 251.557 451.491 256.161 454.119C258.655 453.48 261.207 451.911 263.485 450.711C345.926 407.289 414.095 332.075 423.003 235.983C424.145 223.665 423.609 211.061 423.609 198.691L423.591 116.181C423.589 112.641 423.401 109.008 423.601 105.481C361.964 105.587 305.119 93.9193 256.161 54.2882Z"/>
	<path fill="#F5E6CA" transform="scale(2 2)" d="M89.0439 103.772C100.256 103.213 111.511 104.077 122.762 103.38C173.35 100.249 216.086 86.0807 256.161 54.2882C305.119 93.9193 361.964 105.587 423.601 105.481C423.401 109.008 423.589 112.641 423.591 116.181L423.609 198.691C423.609 211.061 424.145 223.665 423.003 235.983C414.095 332.075 345.926 407.289 263.485 450.711C261.207 451.911 258.655 453.48 256.161 454.119C251.557 451.491 246.806 449.128 242.166 446.565C163.246 402.968 100.117 332.404 90.3465 239.951C88.2514 220.126 89.04 199.89 89.0399 179.972L89.0439 103.772ZM282.817 237.838C307.014 221.705 322.324 200.746 316.936 169.807C311.085 136.207 278.901 111.962 244.894 117.984C187.713 128.109 175.495 200.418 225.633 234.748L225.513 234.555C220.106 226.046 213.721 219.668 212.882 208.525C193.636 208.97 194.266 185.295 212.882 187.253C212.723 184.359 213.254 181.657 213.76 178.825C237.143 178.695 251.382 177.55 270.521 160.609C279.446 166.663 288.206 171.917 298.552 175.21C299.366 179.285 299.82 183.084 299.74 187.253C317.209 186.946 315.753 208.777 299.74 208.525C297.199 215.211 295.015 221.828 291.191 227.948C289.857 230.084 283.137 236.334 282.817 237.838ZM230.935 253.807C229.799 254.579 221.213 259.393 221.073 259.709C210.897 262.909 183.331 268.703 175.685 273.31C160.211 282.634 161.934 298.597 161.951 313.955L161.962 349.54C162.372 353.153 169.096 359.109 171.601 361.875C198.653 391.743 222.735 406.427 256.161 425.85C288.219 412.513 329.818 377.334 350.243 350.487C350.35 348.574 350.262 346.627 350.243 344.709L350.227 307.228C350.226 303.12 350.854 295.529 350.004 291.813C347.195 279.537 337.056 274.421 326.507 270.932L312.5 266.384C306.084 264.314 296.041 260.389 289.818 259.709C289.033 257.945 283.785 256.252 281.984 255.433C279.685 256.606 276.94 259.459 274.704 261.076C268.822 265.331 262.174 269.575 255.603 272.654C248.547 268.123 236.843 259.733 230.935 253.807Z"/>
	<defs>
		<linearGradient id="gradient_1" gradientUnits="userSpaceOnUse" x1="258.24548" y1="235.97131" x2="253.07391" y2="117.38775">
			<stop offset="0" stop-color="#734B35"/>
			<stop offset="1" stop-color="#6E5942"/>
		</linearGradient>
	</defs>
	<path fill="url(#gradient_1)" transform="scale(2 2)" d="M225.633 234.748C175.495 200.418 187.713 128.109 244.894 117.984C278.901 111.962 311.085 136.207 316.936 169.807C322.324 200.746 307.014 221.705 282.817 237.838C283.137 236.334 289.857 230.084 291.191 227.948C295.015 221.828 297.199 215.211 299.74 208.525C315.753 208.777 317.209 186.946 299.74 187.253C299.82 183.084 299.366 179.285 298.552 175.21C288.206 171.917 279.446 166.663 270.521 160.609C251.382 177.55 237.143 178.695 213.76 178.825C213.254 181.657 212.723 184.359 212.882 187.253C194.266 185.295 193.636 208.97 212.882 208.525C213.721 219.668 220.106 226.046 225.513 234.555L225.633 234.748Z"/>
	<path fill="#556B2F" transform="scale(2 2)" d="M289.818 259.709C296.041 260.389 306.084 264.314 312.5 266.384L326.507 270.932C337.056 274.421 347.195 279.537 350.004 291.813C350.854 295.529 350.226 303.12 350.227 307.228L350.243 344.709C350.262 346.627 350.35 348.574 350.243 350.487C329.818 377.334 288.219 412.513 256.161 425.85C222.735 406.427 198.653 391.743 171.601 361.875C169.096 359.109 162.372 353.153 161.962 349.54L161.951 313.955C161.934 298.597 160.211 282.634 175.685 273.31C183.331 268.703 210.897 262.909 221.073 259.709C221.457 262.352 222.555 265.014 223.379 267.552C226.697 277.775 238.945 323.802 242.435 329.099C243.569 335.18 247.032 344.206 248.977 350.415L252.959 363.194C253.934 366.383 254.768 369.707 256.161 372.74L265.947 339.993C267.089 336.147 267.911 332.115 269.233 328.338C271.543 325.076 274.816 311.671 276.049 307.381L285.551 274.34C286.972 269.474 288.185 264.507 289.818 259.709Z"/>
	<defs>
		<linearGradient id="gradient_2" gradientUnits="userSpaceOnUse" x1="254.18201" y1="275.72903" x2="256.05118" y2="291.9549">
			<stop offset="0" stop-color="#A03D36"/>
			<stop offset="1" stop-color="#AE604B"/>
		</linearGradient>
	</defs>
	<path fill="url(#gradient_2)" transform="scale(2 2)" d="M264.12 291.293C259.322 292.78 253.153 292.423 248.301 291.293C246.041 288.756 243.041 286.703 240.624 284.251C244.915 281.065 249.586 278.009 254.165 275.251C262.733 275.884 265.393 279.536 270.521 286.14C268.463 287.854 265.953 289.333 264.12 291.293Z"/>
	<path fill="#4E342E" transform="scale(2 2)" d="M248.301 291.293C253.153 292.423 259.322 292.78 264.12 291.293C266.078 302.238 268.587 317.388 269.233 328.338C267.911 332.115 267.089 336.147 265.947 339.993L256.161 372.74C254.768 369.707 253.934 366.383 252.959 363.194L248.977 350.415C247.032 344.206 243.569 335.18 242.435 329.099C244.346 318.527 245.369 300.739 248.301 291.293Z"/>
</svg>
