<?xml version="1.0" encoding="utf-8" ?>
<svg xmlns="http://www.w3.org/2000/svg" xmlns:xlink="http://www.w3.org/1999/xlink" width="1024" height="1024">
	<path fill="#F5E6CA" transform="scale(2 2)" d="M31.7981 372.25C18.0998 351.73 5.95302 302.342 4.34405 279.212C3.83339 271.871 4.13657 264.357 4.14498 256.992C4.16887 236.092 4.80179 225.868 8.95165 205.024C30.1276 98.662 123.849 13.2529 231.989 4.41804C267.708 1.49985 297.663 4.40944 331.866 15.3259C423.612 44.6085 489.738 121.667 505.45 216.226C507.955 231.304 507.784 241.054 507.785 256.375C507.785 264.871 508.181 273.608 507.524 282.07C505.004 314.515 493.212 344.324 479.584 373.505C475.734 381.997 470.356 389.894 465.103 397.572C425.469 455.508 365.275 494.114 296.233 505.772C276.768 509.059 238.21 509.159 218.478 506.289C159.796 497.756 103.137 465.556 64.3986 421.082C52.1313 406.998 38.9767 389.295 31.7981 372.25ZM150.568 218.709C147.564 214.859 143.229 212.269 138.813 210.315C143.787 180.816 112.628 161.414 89.1271 178.253C78.4405 185.911 74.8367 197.033 75.5541 209.542C53.9695 217.524 49.3181 246.756 61.2756 264.557C45.6841 291.517 77.3187 322.485 103.914 303.519C103.869 306.357 103.765 309.207 103.914 312.042C103.795 323.213 104.632 336.088 103.914 347.029C104.342 355.352 103.925 363.904 103.914 372.25L113.809 372.25L113.809 305.416L113.809 305.416C116.149 305.355 119.402 306.817 121.73 307.435L121.73 368.362C121.932 369.677 121.821 370.932 121.73 372.25C140.831 371.944 159.955 372.299 179.056 372.25L225.721 372.25C232.579 372.246 277.714 371.637 280.502 372.778L280.502 265.055C315.197 264.665 349.939 265.1 384.64 265.055C385.956 265.042 387.313 264.957 388.624 265.055C385.831 268.578 383.912 271.792 382.956 276.214C380.876 282.77 381.705 289.415 384.64 295.599C380.595 301.6 380.165 308.86 382.956 315.388C389.332 328.751 403.714 333.385 415.883 323.932C415.882 330.898 415.583 337.993 415.883 344.944C415.87 347.403 415.856 349.862 415.883 352.321C416.328 358.977 415.897 366.73 415.883 373.505L423.322 373.505C423.321 358.172 423.559 342.806 423.322 327.477L423.322 327.477C423.177 323.934 425.054 326.437 427.031 327.263C445.537 334.99 462.383 314.903 454.06 295.599C463.232 281.296 458.954 263.244 442.353 256.566C442.144 218.59 390.247 225.09 397.541 261.055C392.161 255.409 386.327 247.098 381.12 240.895L324.655 173.117C323.068 171.206 321.454 168.83 319.587 167.207C316.48 167.166 313.37 167.198 310.262 167.207L310.262 140.261L290.848 140.261C290.688 149.234 290.839 158.232 290.848 167.207L195.792 167.207C191.397 171.581 187.399 176.569 183.299 181.225L158.723 209.259C155.989 212.364 153.449 215.75 150.568 218.709ZM294.541 283.702C291.722 285.641 292.708 290.087 292.718 293.057L292.749 351.774C299.4 352.443 306.079 352.331 312.755 352.331L352.968 352.33C357.321 352.332 361.9 352.531 366.197 351.774C369.574 349.708 367.93 335.77 367.928 331.881L367.916 300.853C367.912 295.483 367.737 290.085 367.924 284.72C361.938 282.892 344.236 283.7 337.13 283.698L294.541 283.702Z"/>
	<path fill="#556B2F" transform="scale(2 2)" d="M138.813 210.315C143.229 212.269 147.564 214.859 150.568 218.709C153.449 215.75 155.989 212.364 158.723 209.259L183.299 181.225C187.399 176.569 191.397 171.581 195.792 167.207L290.848 167.207C290.839 158.232 290.688 149.234 290.848 140.261L310.262 140.261L310.262 167.207C313.37 167.198 316.48 167.166 319.587 167.207C321.454 168.83 323.068 171.206 324.655 173.117L381.12 240.895C386.327 247.098 392.161 255.409 397.541 261.055C390.247 225.09 442.144 218.59 442.353 256.566C458.954 263.244 463.232 281.296 454.06 295.599C462.383 314.903 445.537 334.99 427.031 327.263C425.054 326.437 423.177 323.934 423.322 327.477L423.322 327.477C423.559 342.806 423.321 358.172 423.322 373.505L415.883 373.505C415.897 366.73 416.328 358.977 415.883 352.321C415.856 349.862 415.87 347.403 415.883 344.944C415.583 337.993 415.882 330.898 415.883 323.932C403.714 333.385 389.332 328.751 382.956 315.388C380.165 308.86 380.595 301.6 384.64 295.599C381.705 289.415 380.876 282.77 382.956 276.214C383.912 271.792 385.831 268.578 388.624 265.055C387.313 264.957 385.956 265.042 384.64 265.055C349.939 265.1 315.197 264.665 280.502 265.055C279.046 264.23 203.179 180.269 200.666 176.594C195.871 180.331 191.827 185.815 187.798 190.377L166.392 214.72C161.392 220.497 122.1 263.293 121.73 265.968L121.73 280.644L121.73 307.435C119.402 306.817 116.149 305.355 113.809 305.416L113.809 305.416L113.809 372.25L103.914 372.25C103.925 363.904 104.342 355.352 103.914 347.029C104.632 336.088 103.795 323.213 103.914 312.042C103.765 309.207 103.869 306.357 103.914 303.519C77.3187 322.485 45.6841 291.517 61.2756 264.557C49.3181 246.756 53.9695 217.524 75.5541 209.542C74.8367 197.033 78.4405 185.911 89.1271 178.253C112.628 161.414 143.787 180.816 138.813 210.315Z"/>
	<path fill="#CCBB9C" transform="scale(2 2)" d="M200.666 176.594C203.179 180.269 279.046 264.23 280.502 265.055L280.502 372.778C277.714 371.637 232.579 372.246 225.721 372.25L225.721 293.601L179.056 293.601L179.056 372.25C159.955 372.299 140.831 371.944 121.73 372.25C121.821 370.932 121.932 369.677 121.73 368.362L121.73 307.435L121.73 280.644L121.73 265.968C122.1 263.293 161.392 220.497 166.392 214.72L187.798 190.377C191.827 185.815 195.871 180.331 200.666 176.594ZM200.666 223.107C171.938 225.809 173.696 266.249 202.849 265.968C233.344 262.543 226.175 220.882 200.666 223.107Z"/>
	<path fill="#B5AA80" transform="scale(2 2)" d="M202.849 265.968C173.696 266.249 171.938 225.809 200.666 223.107C226.175 220.882 233.344 262.543 202.849 265.968Z"/>
	<path fill="#FEFEFE" transform="scale(2 2)" d="M292.749 351.774L292.718 293.057C292.708 290.087 291.722 285.641 294.541 283.702L337.13 283.698C344.236 283.7 361.938 282.892 367.924 284.72C367.737 290.085 367.912 295.483 367.916 300.853L367.928 331.881C367.93 335.77 369.574 349.708 366.197 351.774C361.9 352.531 357.321 352.332 352.968 352.33L312.755 352.331C306.079 352.331 299.4 352.443 292.749 351.774ZM297.429 288.559L297.429 308.383C297.437 310.434 297.458 312.486 297.429 314.537L326.99 314.537C326.996 312.486 327.012 310.434 326.99 308.383L326.99 288.559L297.429 288.559ZM332.037 288.559C332.048 295.903 331.928 303.253 332.037 310.596C332.036 311.909 332.021 313.224 332.037 314.537L362.935 314.537C363.341 312.019 362.97 309.019 362.957 306.433L362.935 288.559L332.037 288.559ZM297.429 319.453C297.025 326.186 297.115 336.388 297.429 343.142C297.427 344.432 297.382 345.742 297.429 347.029L326.99 347.029C327.469 344.884 327.022 341.881 327.013 339.633L326.99 319.453L297.429 319.453ZM332.037 319.453L332.019 336.715C332.001 340.132 331.829 343.62 332.037 347.029L362.935 347.029C363.407 344.479 362.971 341.049 362.957 338.407L362.935 319.453L332.037 319.453Z"/>
	<path fill="#708090" transform="scale(2 2)" d="M297.429 308.383L297.429 288.559L326.99 288.559L326.99 308.383C327.012 310.434 326.996 312.486 326.99 314.537L297.429 314.537C297.458 312.486 297.437 310.434 297.429 308.383Z"/>
	<path fill="#708090" transform="scale(2 2)" d="M332.037 310.596C331.928 303.253 332.048 295.903 332.037 288.559L362.935 288.559L362.957 306.433C362.97 309.019 363.341 312.019 362.935 314.537L332.037 314.537C332.021 313.224 332.036 311.909 332.037 310.596Z"/>
	<path fill="#556B2F" transform="scale(2 2)" d="M179.056 372.25L179.056 293.601L225.721 293.601L225.721 372.25L179.056 372.25Z"/>
	<path fill="#708090" transform="scale(2 2)" d="M332.037 347.029C331.829 343.62 332.001 340.132 332.019 336.715L332.037 319.453L362.935 319.453L362.957 338.407C362.971 341.049 363.407 344.479 362.935 347.029L332.037 347.029Z"/>
	<path fill="#708090" transform="scale(2 2)" d="M297.429 343.142C297.115 336.388 297.025 326.186 297.429 319.453L326.99 319.453L327.013 339.633C327.022 341.881 327.469 344.884 326.99 347.029L297.429 347.029C297.382 345.742 297.427 344.432 297.429 343.142Z"/>
</svg>
